  0
SECTION
  2
HEADER
  9
$ACADVER
  1
AC1004
  9
$ANGBASE
 50
0.0000000000
  9
$ANGDIR
 70
     0
  9
$ATTDIA
 70
     0
  9
$ATTMODE
 70
     1
  9
$ATTREQ
 70
     1
  9
$AUNITS
 70
     0
  9
$AUPREC
 70
     0
  9
$AXISMODE
 70
     0
  9
$AXISUNIT
 10
0.0000000000
 20
0.0000000000
  9
$BLIPMODE
 70
     1
  9
$CECOLOR
 62
   256
  9
$CELTYPE
  6
BYLAYER
  9
$CHAMFERA
 40
0.0000000000
  9
$CHAMFERB
 40
0.0000000000
  9
$CLAYER
  8
0
  9
$COORDS
 70
     0
  9
$DIMALT
 70
     0
  9
$DIMALTD
 70
     2
  9
$DIMALTF
 40
25.4000000000
  9
$DIMAPOST
  1

  9
$DIMASO
 70
     1
  9
$DIMASZ
 40
0.1799999998
  9
$DIMBLK
  1

  9
$DIMBLK1
  1

  9
$DIMBLK2
  1

  9
$DIMCEN
 40
9.0000000000E-02
  9
$DIMDLE
 40
0.0000000000
  9
$DIMDLI
 40
0.3800000000
  9
$DIMEXE
 40
0.1500000060
  9
$DIMEXO
 40
0.1000000015
  9
$DIMLFAC
 40
1.0000000000
  9
$DIMLIM
 70
     0
  9
$DIMPOST
  1

  9
$DIMRND
 40
0.0000000000
  9
$DIMSCALE
 40
1.0000000000
  9
$DIMSE1
 70
     0
  9
$DIMSE2
 70
     0
  9
$DIMSHO
 70
     0
  9
$DIMTAD
 70
     0
  9
$DIMTIH
 70
     0
  9
$DIMTM
 40
0.0000000000
  9
$DIMTOH
 70
     1
  9
$DIMTOL
 70
     0
  9
$DIMTP
 40
0.0000000000
  9
$DIMTSZ
 40
0.0000000000
  9
$DIMTXT
 40
1.4221838210E-03
  9
$DIMZIN
 70
     0
  9
$DRAGMODE
 70
     1
  9
$ELEVATION
 40
0.0000000000
  9
$EXTMAX
 10
112.5169982910
 20
107.4709167480
 30
1.0000000000E-08
  9
$EXTMIN
 10
-0.1250000000
 20
-0.1250000000
 30
-1.0000000000E-08
  9
$FASTZOOM
 70
     1
  9
$FILLETRAD
 40
6.2500000000E-02
  9
$FILLMODE
 70
     1
  9
$GRIDMODE
 70
     0
  9
$GRIDUNIT
 10
0.0000000000
 20
0.0000000000
  9
$INSBASE
 10
0.0000000000
 20
0.0000000000
 30
0.0000000000
  9
$LIMCHECK
 70
     0
  9
$LIMMAX
 10
112.5169982910
 20
107.4709167480
  9
$LIMMIN
 10
-0.1250000000
 20
-0.1250000000
  9
$LTSCALE
 40
1.0000000000
  9
$LUNITS
 70
     2
  9
$LUPREC
 70
     3
  9
$MENU
  1
ACAD
  9
$MIRRTEXT
 70
     0
  9
$ORTHOMODE
 70
     0
  9
$OSMODE
 70
     0
  9
$PDMODE
 70
     0
  9
$PDSIZE
 40
0.0000000000
  9
$PLINEWID
 40
0.0000000000
  9
$QTEXTMODE
 70
     0
  9
$REGENMODE
 70
     1
  9
$SKETCHINC
 40
0.1000000000
  9
$SKPOLY
 70
     0
  9
$SNAPANG
 50
0.0000000000
  9
$SNAPBASE
 10
0.0000000000
 20
0.0000000000
  9
$SNAPISOPAIR
 70
     0
  9
$SNAPMODE
 70
     0
  9
$SNAPSTYLE
 70
     0
  9
$SNAPUNIT
 10
1.0000000000
 20
1.0000000000
  9
$SPLFRAME
 70
     0
  9
$SPLINESEGS
 70
     8
  9
$TDCREATE
 40
2450129.7523263940
  9
$TDINDWG
 40
0.0000000000
  9
$TDUPDATE
 40
2450129.7523263940
  9
$TDUSRTIMER
 40
0.0000000000
  9
$TEXTSIZE
 40
1.4221838210E-03
  9
$TEXTSTYLE
  7
STANDARD
  9
$THICKNESS
 40
0.0000000000
  9
$TRACEWID
 40
5.0000000000E-02
  9
$USERI1
 70
     0
  9
$USERI2
 70
     0
  9
$USERI3
 70
     0
  9
$USERI4
 70
     0
  9
$USERI5
 70
     0
  9
$USERR1
 40
0.0000000000
  9
$USERR2
 40
0.0000000000
  9
$USERR3
 40
0.0000000000
  9
$USERR4
 40
0.0000000000
  9
$USERR5
 40
0.0000000000
  9
$USRTIMER
 70
     1
  9
$VIEWCTR
 10
56.1959991455
 20
53.6729583740
  9
$VIEWDIR
 10
0.0000000000
 20
0.0000000000
 30
1.0000000000
  9
$VIEWSIZE
 40
107.5959167480
  0
ENDSEC
  0
SECTION
  2
TABLES
  0
TABLE
  2
LTYPE
 70
     1
  0
LTYPE
  2
SOLID
  3
Solid
 70
    64
 72
    65
 73
     0
 40
0.0000000000
  0
ENDTAB
  0
TABLE
  2
LAYER
 70
     2
  0
LAYER
  2
0
 70
     0
  6
SOLID
 62
     2
  0
LAYER
  2
255
 70
     0
  6
SOLID
 62
     7
  0
ENDTAB
  0
TABLE
  2
STYLE
 70
     1
  0
STYLE
  2
STANDARD
  3
txt
  4

 40
0.0000000000
 41
1.0000000000
 42
4.0000000000
 50
0.0000000000
 70
     0
 71
     0
  0
ENDTAB
  0
ENDSEC
  0
SECTION
  2
BLOCKS
  0
ENDSEC
  0
SECTION
  2
ENTITIES
  0
POINT
  8
0
 10
0.0000000000
 20
0.0000000000
  0
POINT
  8
0
 62
     2
 10
112.3919973837
 20
56.9522153106
  0
ARC
  8
0
 62
     2
 10
22.7752670849
 20
53.8232738939
 40
0.2560000000
 50
198.7092181221
 51
267.7544874707
  0
ARC
  8
0
 62
     2
 10
78.8994849304
 20
92.4839007673
 40
0.2560000000
 50
82.6217165709
 51
147.7544874686
  0
ARC
  8
0
 62
     2
 10
84.3195541071
 20
24.5485460502
 40
0.2560000000
 50
318.7092181108
 51
387.7544874643
  0
ARC
  8
0
 62
     2
 10
85.5761132183
 20
45.8058393490
 40
0.2560000000
 50
52.7827190300
 51
159.5705897066
  0
POLYLINE
  8
0
 62
     2
 66
     1
  0
VERTEX
  8
0
 62
     2
 10
85.3362148645
 20
45.8951969486
  0
VERTEX
  8
0
 62
     2
 10
85.3179202581
 20
45.8460814175
  0
VERTEX
  8
0
 62
     2
 10
85.2725399675
 20
45.7403782350
  0
VERTEX
  8
0
 62
     2
 10
85.2214517163
 20
45.6379497987
  0
VERTEX
  8
0
 62
     2
 10
85.1646385582
 20
45.5412202147
  0
VERTEX
  8
0
 62
     2
 10
85.1020835506
 20
45.4526135889
  0
VERTEX
  8
0
 62
     2
 10
85.0337697396
 20
45.3745540199
  0
VERTEX
  8
0
 62
     2
 10
84.9596801827
 20
45.3094656360
  0
VERTEX
  8
0
 62
     2
 10
84.7632934878
 20
45.2142708343
  0
VERTEX
  8
0
 62
     2
 10
84.5416595878
 20
45.1941917729
  0
VERTEX
  8
0
 62
     2
 10
84.3017131480
 20
45.2388142165
  0
VERTEX
  8
0
 62
     2
 10
84.0503888408
 20
45.3377239150
  0
VERTEX
  8
0
 62
     2
 10
83.7946213315
 20
45.4805066329
  0
VERTEX
  8
0
 62
     2
 10
83.5413452925
 20
45.6567481351
  0
VERTEX
  8
0
 62
     2
 10
83.2974953929
 20
45.8560341713
  0
VERTEX
  8
0
 62
     2
 10
83.0700062977
 20
46.0679505211
  0
VERTEX
  8
0
 62
     2
 10
82.7644032182
 20
46.3990595010
  0
VERTEX
  8
0
 62
     2
 10
82.5078109035
 20
46.7353312042
  0
VERTEX
  8
0
 62
     2
 10
82.2947286124
 20
47.0767427650
  0
VERTEX
  8
0
 62
     2
 10
82.1196556220
 20
47.4232713026
  0
VERTEX
  8
0
 62
     2
 10
81.9770911874
 20
47.7748939511
  0
VERTEX
  8
0
 62
     2
 10
81.8615345860
 20
48.1315878448
  0
VERTEX
  8
0
 62
     2
 10
81.7674850801
 20
48.4933301029
  0
VERTEX
  8
0
 62
     2
 10
81.6894419359
 20
48.8600978595
  0
VERTEX
  8
0
 62
     2
 10
81.5729733126
 20
49.5454858658
  0
VERTEX
  8
0
 62
     2
 10
81.4782980586
 20
50.2436454710
  0
VERTEX
  8
0
 62
     2
 10
81.3918317685
 20
50.9505019155
  0
VERTEX
  8
0
 62
     2
 10
81.2999900522
 20
51.6619804096
  0
VERTEX
  8
0
 62
     2
 10
81.1891885082
 20
52.3740061787
  0
VERTEX
  8
0
 62
     2
 10
81.0458427387
 20
53.0825044554
  0
VERTEX
  8
0
 62
     2
 10
80.8563683460
 20
53.7834004578
  0
VERTEX
  8
0
 62
     2
 10
80.6071809361
 20
54.4726194185
  0
VERTEX
  8
0
 62
     2
 10
80.5412756557
 20
54.6256298315
  0
VERTEX
  8
0
 62
     2
 10
80.4707192870
 20
54.7763287988
  0
VERTEX
  8
0
 62
     2
 10
80.3945814388
 20
54.9232044634
  0
VERTEX
  8
0
 62
     2
 10
80.3119317273
 20
55.0647449833
  0
VERTEX
  8
0
 62
     2
 10
80.2218397724
 20
55.1994384867
  0
VERTEX
  8
0
 62
     2
 10
80.1233751865
 20
55.3257731241
  0
VERTEX
  8
0
 62
     2
 10
80.0156075897
 20
55.4422370461
  0
VERTEX
  8
0
 62
     2
 10
79.8976065906
 20
55.5473183957
  0
VERTEX
  8
0
 62
     2
 10
79.3310180770
 20
55.8411558312
  0
VERTEX
  8
0
 62
     2
 10
78.6440061460
 20
55.9544510883
  0
VERTEX
  8
0
 62
     2
 10
77.8908598589
 20
55.9084589299
  0
VERTEX
  8
0
 62
     2
 10
77.1258682663
 20
55.7244341415
  0
VERTEX
  8
0
 62
     2
 10
76.4033204260
 20
55.4236314860
  0
VERTEX
  8
0
 62
     2
 10
75.7775053846
 20
55.0273057488
  0
VERTEX
  8
0
 62
     2
 10
75.3027122038
 20
54.5567116928
  0
VERTEX
  8
0
 62
     2
 10
75.0332299302
 20
54.0331041035
  0
VERTEX
  8
0
 62
     2
 10
74.9887316393
 20
53.7456722227
  0
VERTEX
  8
0
 62
     2
 10
75.0012849661
 20
53.4487986159
  0
VERTEX
  8
0
 62
     2
 10
75.0574430468
 20
53.1416661408
  0
VERTEX
  8
0
 62
     2
 10
75.1437590176
 20
52.8234576550
  0
VERTEX
  8
0
 62
     2
 10
75.2467860112
 20
52.4933560309
  0
VERTEX
  8
0
 62
     2
 10
75.3530771712
 20
52.1505441260
  0
VERTEX
  8
0
 62
     2
 10
75.4491856264
 20
51.7942047980
  0
VERTEX
  8
0
 62
     2
 10
75.5216645168
 20
51.4235209268
  0
VERTEX
  8
0
 62
     2
 10
75.5611531975
 20
50.9982478809
  0
VERTEX
  8
0
 62
     2
 10
75.5554354059
 20
50.5679932651
  0
VERTEX
  8
0
 62
     2
 10
75.5046685318
 20
50.1463261810
  0
VERTEX
  8
0
 62
     2
 10
75.4090099724
 20
49.7468157303
  0
VERTEX
  8
0
 62
     2
 10
75.2686171213
 20
49.3830310073
  0
VERTEX
  8
0
 62
     2
 10
75.0836473683
 20
49.0685411286
  0
VERTEX
  8
0
 62
     2
 10
74.8542581106
 20
48.8169151959
  0
VERTEX
  8
0
 62
     2
 10
74.5806067379
 20
48.6417223033
  0
VERTEX
  8
0
 62
     2
 10
74.3770021254
 20
48.5732205254
  0
VERTEX
  8
0
 62
     2
 10
74.1571106704
 20
48.5385826421
  0
VERTEX
  8
0
 62
     2
 10
73.9237292277
 20
48.5327294436
  0
VERTEX
  8
0
 62
     2
 10
73.6796546558
 20
48.5505817276
  0
VERTEX
  8
0
 62
     2
 10
73.4276838208
 20
48.5870602769
  0
VERTEX
  8
0
 62
     2
 10
73.1706135737
 20
48.6370858964
  0
VERTEX
  8
0
 62
     2
 10
72.9112407806
 20
48.6955793691
  0
VERTEX
  8
0
 62
     2
 10
71.8979174288
 20
48.9378532734
  0
VERTEX
  8
0
 62
     2
 10
71.1737852710
 20
49.1223342013
  0
VERTEX
  8
0
 62
     2
 10
70.4809503200
 20
49.3300582436
  0
VERTEX
  8
0
 62
     2
 10
69.8203970621
 20
49.5801793975
  0
VERTEX
  8
0
 62
     2
 10
69.1931099946
 20
49.8918516305
  0
VERTEX
  8
0
 62
     2
 10
68.6000736000
 20
50.2842289177
  0
VERTEX
  8
0
 62
     2
 10
68.0422723757
 20
50.7764652413
  0
VERTEX
  8
0
 62
     2
 10
67.5206908116
 20
51.3877145764
  0
VERTEX
  8
0
 62
     2
 10
67.3161620626
 20
51.6756751877
  0
VERTEX
  8
0
 62
     2
 10
67.1149955036
 20
51.9714810592
  0
VERTEX
  8
0
 62
     2
 10
66.9142444225
 20
52.2595477444
  0
VERTEX
  8
0
 62
     2
 10
66.7109620961
 20
52.5242908117
  0
VERTEX
  8
0
 62
     2
 10
66.5022018196
 20
52.7501258072
  0
VERTEX
  8
0
 62
     2
 10
66.2850168774
 20
52.9214682919
  0
VERTEX
  8
0
 62
     2
 10
66.0564605499
 20
53.0227338266
  0
VERTEX
  8
0
 62
     2
 10
65.8135861287
 20
53.0383379650
  0
VERTEX
  8
0
 62
     2
 10
65.7022857608
 20
53.0150166568
  0
VERTEX
  8
0
 62
     2
 10
65.5883050801
 20
52.9755341452
  0
VERTEX
  8
0
 62
     2
 10
65.4722643996
 20
52.9230850604
  0
VERTEX
  8
0
 62
     2
 10
65.3547840359
 20
52.8608640176
  0
VERTEX
  8
0
 62
     2
 10
65.2364843058
 20
52.7920656395
  0
VERTEX
  8
0
 62
     2
 10
65.1179855148
 20
52.7198845562
  0
VERTEX
  8
0
 62
     2
 10
64.9999079870
 20
52.6475153831
  0
VERTEX
  8
0
 62
     2
 10
64.8828720281
 20
52.5781527576
  0
VERTEX
  8
0
 62
     2
 10
64.4583850483
 20
52.3690141407
  0
VERTEX
  8
0
 62
     2
 10
64.0446359458
 20
52.2277740878
  0
VERTEX
  8
0
 62
     2
 10
63.6292239594
 20
52.1359916744
  0
VERTEX
  8
0
 62
     2
 10
63.1997483390
 20
52.0752260131
  0
VERTEX
  8
0
 62
     2
 10
62.7438083234
 20
52.0270362016
  0
VERTEX
  8
0
 62
     2
 10
62.2490031587
 20
51.9729813304
  0
VERTEX
  8
0
 62
     2
 10
61.7029320838
 20
51.8946204972
  0
VERTEX
  8
0
 62
     2
 10
61.0931943523
 20
51.7735127997
  0
VERTEX
  8
0
 62
     2
 10
60.6713702062
 20
51.6705899280
  0
VERTEX
  8
0
 62
     2
 10
59.8793133998
 20
51.4780566510
  0
SEQEND
  8
0
 62
     2
  0
ARC
  8
0
 62
     2
 10
40.5569997484
 20
42.1056210887
 40
0.2560000000
 50
287.9393129748
 51
399.5705896903
  0
POLYLINE
  8
0
 62
     2
 66
     1
  0
VERTEX
  8
0
 62
     2
 10
40.7543348724
 20
42.2687003654
  0
VERTEX
  8
0
 62
     2
 10
40.7202906775
 20
42.3098957580
  0
VERTEX
  8
0
 62
     2
 10
40.6514391879
 20
42.4020478320
  0
VERTEX
  8
0
 62
     2
 10
40.5882776844
 20
42.4975057733
  0
VERTEX
  8
0
 62
     2
 10
40.5329139808
 20
42.5950722065
  0
VERTEX
  8
0
 62
     2
 10
40.4874558950
 20
42.6935497490
  0
VERTEX
  8
0
 62
     2
 10
40.4540112371
 20
42.7917410251
  0
VERTEX
  8
0
 62
     2
 10
40.4346878173
 20
42.8884486523
  0
VERTEX
  8
0
 62
     2
 10
40.4504400509
 20
43.1061219242
  0
VERTEX
  8
0
 62
     2
 10
40.5438680256
 20
43.3081020382
  0
VERTEX
  8
0
 62
     2
 10
40.7024854103
 20
43.4935905304
  0
VERTEX
  8
0
 62
     2
 10
40.9138058776
 20
43.6617889148
  0
VERTEX
  8
0
 62
     2
 10
41.1653430926
 20
43.8118987200
  0
VERTEX
  8
0
 62
     2
 10
41.4446107278
 20
43.9431214523
  0
VERTEX
  8
0
 62
     2
 10
41.7391224520
 20
44.0546586406
  0
VERTEX
  8
0
 62
     2
 10
42.0363919379
 20
44.1457117987
  0
VERTEX
  8
0
 62
     2
 10
42.4759422669
 20
44.2448173430
  0
VERTEX
  8
0
 62
     2
 10
42.8954582641
 20
44.2988969502
  0
VERTEX
  8
0
 62
     2
 10
43.2976704927
 20
44.3127258462
  0
VERTEX
  8
0
 62
     2
 10
43.6853095049
 20
44.2910792422
  0
VERTEX
  8
0
 62
     2
 10
44.0611058677
 20
44.2387323347
  0
VERTEX
  8
0
 62
     2
 10
44.4277901406
 20
44.1604603422
  0
VERTEX
  8
0
 62
     2
 10
44.7880928794
 20
44.0610384759
  0
VERTEX
  8
0
 62
     2
 10
45.1447446475
 20
43.9452419397
  0
VERTEX
  8
0
 62
     2
 10
45.7965423817
 20
43.7034127232
  0
VERTEX
  8
0
 62
     2
 10
46.4485039691
 20
43.4363240939
  0
VERTEX
  8
0
 62
     2
 10
47.1038927453
 20
43.1577778798
  0
VERTEX
  8
0
 62
     2
 10
47.7659720535
 20
42.8815758941
  0
VERTEX
  8
0
 62
     2
 10
48.4380052330
 20
42.6215199572
  0
VERTEX
  8
0
 62
     2
 10
49.1232556233
 20
42.3914118972
  0
VERTEX
  8
0
 62
     2
 10
49.8249865638
 20
42.2050535348
  0
VERTEX
  8
0
 62
     2
 10
50.5464613939
 20
42.0762466830
  0
VERTEX
  8
0
 62
     2
 10
50.7119249383
 20
42.0568171185
  0
VERTEX
  8
0
 62
     2
 10
50.8777122589
 20
42.0425712433
  0
VERTEX
  8
0
 62
     2
 10
51.0429792458
 20
42.0350707215
  0
VERTEX
  8
0
 62
     2
 10
51.2068817781
 20
42.0358772170
  0
VERTEX
  8
0
 62
     2
 10
51.3685757535
 20
42.0465523866
  0
VERTEX
  8
0
 62
     2
 10
51.5272170546
 20
42.0686578941
  0
VERTEX
  8
0
 62
     2
 10
51.6819615679
 20
42.1037554112
  0
VERTEX
  8
0
 62
     2
 10
51.8319651874
 20
42.1534066018
  0
VERTEX
  8
0
 62
     2
 10
52.3697301278
 20
42.4971679267
  0
VERTEX
  8
0
 62
     2
 10
52.8113526570
 20
43.0354900849
  0
VERTEX
  8
0
 62
     2
 10
53.1480954269
 20
43.7107299831
  0
VERTEX
  8
0
 62
     2
 10
53.3712210784
 20
44.4652445283
  0
VERTEX
  8
0
 62
     2
 10
53.4719922634
 20
45.2413906422
  0
VERTEX
  8
0
 62
     2
 10
53.4416716265
 20
45.9815252316
  0
VERTEX
  8
0
 62
     2
 10
53.2715218121
 20
46.6280052182
  0
VERTEX
  8
0
 62
     2
 10
52.9528054686
 20
47.1231875089
  0
VERTEX
  8
0
 62
     2
 10
52.7261313105
 20
47.3054400948
  0
VERTEX
  8
0
 62
     2
 10
52.4627545605
 20
47.4430054021
  0
VERTEX
  8
0
 62
     2
 10
52.1686909924
 20
47.5479373154
  0
VERTEX
  8
0
 62
     2
 10
51.8499563763
 20
47.6322897342
  0
VERTEX
  8
0
 62
     2
 10
51.5125664825
 20
47.7081165504
  0
VERTEX
  8
0
 62
     2
 10
51.1625370847
 20
47.7874716636
  0
VERTEX
  8
0
 62
     2
 10
50.8058839495
 20
47.8824089584
  0
VERTEX
  8
0
 62
     2
 10
50.4486228543
 20
48.0049823415
  0
VERTEX
  8
0
 62
     2
 10
50.0605812537
 20
48.1834206623
  0
VERTEX
  8
0
 62
     2
 10
49.6908287237
 20
48.4034997192
  0
VERTEX
  8
0
 62
     2
 10
49.3510377499
 20
48.6582986680
  0
VERTEX
  8
0
 62
     2
 10
49.0528808290
 20
48.9408966345
  0
VERTEX
  8
0
 62
     2
 10
48.8080304468
 20
49.2443727669
  0
VERTEX
  8
0
 62
     2
 10
48.6281591000
 20
49.5618062136
  0
VERTEX
  8
0
 62
     2
 10
48.5249392742
 20
49.8862761077
  0
VERTEX
  8
0
 62
     2
 10
48.5100434663
 20
50.2108615902
  0
VERTEX
  8
0
 62
     2
 10
48.5525214950
 20
50.4214392421
  0
VERTEX
  8
0
 62
     2
 10
48.6324699352
 20
50.6291897786
  0
VERTEX
  8
0
 62
     2
 10
48.7440916391
 20
50.8342306358
  0
VERTEX
  8
0
 62
     2
 10
48.8815894516
 20
51.0366792720
  0
VERTEX
  8
0
 62
     2
 10
49.0391662212
 20
51.2366531384
  0
VERTEX
  8
0
 62
     2
 10
49.2110248001
 20
51.4342696932
  0
VERTEX
  8
0
 62
     2
 10
49.3913680332
 20
51.6296463874
  0
VERTEX
  8
0
 62
     2
 10
50.1078450659
 20
52.3860731986
  0
VERTEX
  8
0
 62
     2
 10
50.6296763102
 20
52.9209495825
  0
VERTEX
  8
0
 62
     2
 10
51.1559880914
 20
53.4171002251
  0
VERTEX
  8
0
 62
     2
 10
51.7028759884
 20
53.8640955505
  0
VERTEX
  8
0
 62
     2
 10
52.2864355909
 20
54.2515059751
  0
VERTEX
  8
0
 62
     2
 10
52.9227624888
 20
54.5689019081
  0
VERTEX
  8
0
 62
     2
 10
53.6279522607
 20
54.8058537808
  0
VERTEX
  8
0
 62
     2
 10
54.4181004966
 20
54.9519319948
  0
VERTEX
  8
0
 62
     2
 10
54.7697460743
 20
54.9850787786
  0
VERTEX
  8
0
 62
     2
 10
55.1265047545
 20
55.0113911968
  0
VERTEX
  8
0
 62
     2
 10
55.4763533676
 20
55.0412133899
  0
VERTEX
  8
0
 62
     2
 10
55.8072687442
 20
55.0848895129
  0
VERTEX
  8
0
 62
     2
 10
56.1072277257
 20
55.1527637210
  0
VERTEX
  8
0
 62
     2
 10
56.3642071428
 20
55.2551801544
  0
VERTEX
  8
0
 62
     2
 10
56.5661838332
 20
55.4024829757
  0
VERTEX
  8
0
 62
     2
 10
56.7011346238
 20
55.6050163251
  0
VERTEX
  8
0
 62
     2
 10
56.7365879620
 20
55.7130659264
  0
VERTEX
  8
0
 62
     2
 10
56.7593854459
 20
55.8315173429
  0
VERTEX
  8
0
 62
     2
 10
56.7719835432
 20
55.9582360652
  0
VERTEX
  8
0
 62
     2
 10
56.7768387215
 20
56.0910875690
  0
VERTEX
  8
0
 62
     2
 10
56.7764074484
 20
56.2279373300
  0
VERTEX
  8
0
 62
     2
 10
56.7731461877
 20
56.3666508314
  0
VERTEX
  8
0
 62
     2
 10
56.7695114145
 20
56.5050935563
  0
VERTEX
  8
0
 62
     2
 10
56.7679595927
 20
56.6411309805
  0
VERTEX
  8
0
 62
     2
 10
56.7990837338
 20
57.1133167934
  0
VERTEX
  8
0
 62
     2
 10
56.8836408051
 20
57.5422540572
  0
VERTEX
  8
0
 62
     2
 10
57.0118609013
 20
57.9479025942
  0
VERTEX
  8
0
 62
     2
 10
57.1739741059
 20
58.3502222267
  0
VERTEX
  8
0
 62
     2
 10
57.3602105098
 20
58.7691727695
  0
VERTEX
  8
0
 62
     2
 10
57.5608002002
 20
59.2247140524
  0
VERTEX
  8
0
 62
     2
 10
57.7659732642
 20
59.7368058827
  0
VERTEX
  8
0
 62
     2
 10
57.9659597891
 20
60.3254081052
  0
VERTEX
  8
0
 62
     2
 10
58.0877380425
 20
60.7421799642
  0
VERTEX
  8
0
 62
     2
 10
58.2895777317
 20
61.4307438773
  0
SEQEND
  8
0
 62
     2
  0
ARC
  8
0
 62
     2
 10
66.2984280007
 20
55.9309428674
 40
0.2560000000
 50
344.1459870019
 51
446.4987539602
  0
POLYLINE
  8
0
 62
     2
 66
     1
  0
VERTEX
  8
0
 62
     2
 10
66.3140619861
 20
56.1864650366
  0
VERTEX
  8
0
 62
     2
 10
66.0492172444
 20
56.2026694161
  0
VERTEX
  8
0
 62
     2
 10
65.4862012917
 20
56.3802406457
  0
VERTEX
  8
0
 62
     2
 10
64.9596099461
 20
56.6847614092
  0
VERTEX
  8
0
 62
     2
 10
64.4703351351
 20
57.1022318792
  0
VERTEX
  8
0
 62
     2
 10
64.0192687715
 20
57.6186522213
  0
VERTEX
  8
0
 62
     2
 10
63.6073027792
 20
58.2200226006
  0
VERTEX
  8
0
 62
     2
 10
63.2353290783
 20
58.8923431900
  0
VERTEX
  8
0
 62
     2
 10
62.9042395892
 20
59.6216141549
  0
VERTEX
  8
0
 62
     2
 10
62.7572040985
 20
59.9904440609
  0
VERTEX
  8
0
 62
     2
 10
62.6136158200
 20
60.3549139467
  0
VERTEX
  8
0
 62
     2
 10
62.4670451747
 20
60.7005093288
  0
VERTEX
  8
0
 62
     2
 10
62.3110625798
 20
61.0127157462
  0
VERTEX
  8
0
 62
     2
 10
62.1392384449
 20
61.2770187151
  0
VERTEX
  8
0
 62
     2
 10
61.9451431947
 20
61.4789037672
  0
VERTEX
  8
0
 62
     2
 10
61.7223472426
 20
61.6038564113
  0
VERTEX
  8
0
 62
     2
 10
61.4644210058
 20
61.6373621863
  0
VERTEX
  8
0
 62
     2
 10
61.3967560696
 20
61.6303949323
  0
VERTEX
  8
0
 62
     2
 10
61.3270878473
 20
61.6183200818
  0
VERTEX
  8
0
 62
     2
 10
61.2557999471
 20
61.6021156949
  0
VERTEX
  8
0
 62
     2
 10
61.1832759770
 20
61.5827598092
  0
VERTEX
  8
0
 62
     2
 10
61.1098995449
 20
61.5612304848
  0
VERTEX
  8
0
 62
     2
 10
61.0360542590
 20
61.5385057670
  0
VERTEX
  8
0
 62
     2
 10
60.9621237273
 20
61.5155637082
  0
VERTEX
  8
0
 62
     2
 10
60.8884915577
 20
61.4933823463
  0
VERTEX
  8
0
 62
     2
 10
60.8154561127
 20
61.4727224004
  0
VERTEX
  8
0
 62
     2
 10
60.7429747636
 20
61.4534751889
  0
VERTEX
  8
0
 62
     2
 10
60.6709196473
 20
61.4353146967
  0
SEQEND
  8
0
 62
     2
  0
ARC
  8
0
 62
     2
 10
68.4503328184
 20
57.3740896475
 40
0.2560000000
 50
215.9271389245
 51
290.8643268066
  0
ARC
  8
0
 62
     2
 10
60.7326801026
 20
61.1868719053
 40
0.2560000000
 50
103.6301673406
 51
206.4987539570
  0
ARC
  8
0
 62
     2
 10
58.9654595943
 20
53.7413614136
 40
0.2560000000
 50
226.3521774806
 51
326.4987539500
  0
POLYLINE
  8
0
 62
     2
 66
     1
  0
VERTEX
  8
0
 62
     2
 10
59.1789312901
 20
53.6000608993
  0
VERTEX
  8
0
 62
     2
 10
59.3237104880
 20
53.8187880707
  0
VERTEX
  8
0
 62
     2
 10
59.7589996623
 20
54.2175885704
  0
VERTEX
  8
0
 62
     2
 10
60.2860180566
 20
54.5213696700
  0
VERTEX
  8
0
 62
     2
 10
60.8921954947
 20
54.7363588479
  0
VERTEX
  8
0
 62
     2
 10
61.5649618076
 20
54.8687836122
  0
VERTEX
  8
0
 62
     2
 10
62.2917468304
 20
54.9248714340
  0
VERTEX
  8
0
 62
     2
 10
63.0599803904
 20
54.9108498138
  0
VERTEX
  8
0
 62
     2
 10
63.8570923189
 20
54.8329462376
  0
VERTEX
  8
0
 62
     2
 10
64.2500261309
 20
54.7758677569
  0
VERTEX
  8
0
 62
     2
 10
64.6374604458
 20
54.7179839131
  0
VERTEX
  8
0
 62
     2
 10
65.0100401545
 20
54.6721201208
  0
VERTEX
  8
0
 62
     2
 10
65.3584101403
 20
54.6511018020
  0
VERTEX
  8
0
 62
     2
 10
65.6732152904
 20
54.6677543861
  0
VERTEX
  8
0
 62
     2
 10
65.9451004954
 20
54.7349032727
  0
VERTEX
  8
0
 62
     2
 10
66.1647106426
 20
54.8653739062
  0
VERTEX
  8
0
 62
     2
 10
66.3226906115
 20
55.0719916937
  0
VERTEX
  8
0
 62
     2
 10
66.3504892605
 20
55.1340748784
  0
VERTEX
  8
0
 62
     2
 10
66.3748662451
 20
55.2004467514
  0
VERTEX
  8
0
 62
     2
 10
66.3964767808
 20
55.2702860799
  0
VERTEX
  8
0
 62
     2
 10
66.4159760790
 20
55.3427716237
  0
VERTEX
  8
0
 62
     2
 10
66.4340193549
 20
55.4170821351
  0
VERTEX
  8
0
 62
     2
 10
66.4512618127
 20
55.4923963886
  0
VERTEX
  8
0
 62
     2
 10
66.4683586711
 20
55.5678931367
  0
VERTEX
  8
0
 62
     2
 10
66.4859651344
 20
55.6427511465
  0
VERTEX
  8
0
 62
     2
 10
66.5045908185
 20
55.7163316724
  0
VERTEX
  8
0
 62
     2
 10
66.5241629200
 20
55.7887259689
  0
VERTEX
  8
0
 62
     2
 10
66.5446899886
 20
55.8610069346
  0
SEQEND
  8
0
 62
     2
  0
POLYLINE
  8
0
 62
     2
 66
     1
  0
VERTEX
  8
0
 62
     2
 10
60.5035744215
 20
61.0726502505
  0
VERTEX
  8
0
 62
     2
 10
60.6219620610
 20
60.8351884451
  0
VERTEX
  8
0
 62
     2
 10
60.7496888394
 20
60.2588167083
  0
VERTEX
  8
0
 62
     2
 10
60.7492617907
 20
59.6505148452
  0
VERTEX
  8
0
 62
     2
 10
60.6323591674
 20
59.0180551898
  0
VERTEX
  8
0
 62
     2
 10
60.4106592143
 20
58.3692100909
  0
VERTEX
  8
0
 62
     2
 10
60.0958401839
 20
57.7117518899
  0
VERTEX
  8
0
 62
     2
 10
59.6995803246
 20
57.0534529206
  0
VERTEX
  8
0
 62
     2
 10
59.2335578853
 20
56.4020855319
  0
VERTEX
  8
0
 62
     2
 10
58.9876595678
 20
56.0903341067
  0
VERTEX
  8
0
 62
     2
 10
58.7438135276
 20
55.7837480721
  0
VERTEX
  8
0
 62
     2
 10
58.5178044642
 20
55.4840164748
  0
VERTEX
  8
0
 62
     2
 10
58.3254170733
 20
55.1928283763
  0
VERTEX
  8
0
 62
     2
 10
58.1824360544
 20
54.9118728232
  0
VERTEX
  8
0
 62
     2
 10
58.1046460996
 20
54.6428388846
  0
VERTEX
  8
0
 62
     2
 10
58.1078319082
 20
54.3874156070
  0
VERTEX
  8
0
 62
     2
 10
58.2077781724
 20
54.1472920445
  0
VERTEX
  8
0
 62
     2
 10
58.2476444634
 20
54.0921761212
  0
VERTEX
  8
0
 62
     2
 10
58.2929357009
 20
54.0378790912
  0
VERTEX
  8
0
 62
     2
 10
58.3426130654
 20
53.9842441571
  0
VERTEX
  8
0
 62
     2
 10
58.3956377374
 20
53.9311144915
  0
VERTEX
  8
0
 62
     2
 10
58.7887623178
 20
53.5561208320
  0
SEQEND
  8
0
 62
     2
  0
ARC
  8
0
 62
     2
 10
56.7541836331
 20
61.8808160615
 40
1.6000000000
 50
343.6624836776
 51
427.4109061558
  0
ARC
  8
0
 62
     2
 10
60.2572365085
 20
49.9233302665
 40
1.6000000000
 50
103.6624836707
 51
157.3979514076
  0
ARC
  8
0
 62
     2
 10
61.9982965978
 20
56.9522153106
 40
44.2114047104
 50
318.1124126196
 51
433.9591339513
  0
ARC
  8
0
 62
     2
 10
61.9982965978
 20
56.9522153106
 40
44.2114047104
 50
198.1124126197
 51
313.9591339513
  0
POLYLINE
  8
0
 62
     2
 66
     1
  0
VERTEX
  8
0
 62
     2
 10
78.6829679104
 20
92.6204891321
  0
VERTEX
  8
0
 62
     2
 10
78.2579569834
 20
91.9467706647
  0
VERTEX
  8
0
 62
     2
 10
77.7797608132
 20
91.1044714642
  0
VERTEX
  8
0
 62
     2
 10
77.3404020908
 20
90.2425134671
  0
VERTEX
  8
0
 62
     2
 10
76.9373657907
 20
89.3599593979
  0
VERTEX
  8
0
 62
     2
 10
76.5681368912
 20
88.4558719811
  0
VERTEX
  8
0
 62
     2
 10
76.2302003743
 20
87.5293139484
  0
VERTEX
  8
0
 62
     2
 10
75.9210412072
 20
86.5793480095
  0
VERTEX
  8
0
 62
     2
 10
75.6381443793
 20
85.6050368962
  0
VERTEX
  8
0
 62
     2
 10
75.3126563894
 20
84.3160356399
  0
VERTEX
  8
0
 62
     2
 10
75.0464418361
 20
83.0019226935
  0
VERTEX
  8
0
 62
     2
 10
74.8593882898
 20
81.6795183089
  0
VERTEX
  8
0
 62
     2
 10
74.7713833245
 20
80.3656427380
  0
VERTEX
  8
0
 62
     2
 10
74.8023145067
 20
79.0771162552
  0
VERTEX
  8
0
 62
     2
 10
74.9720694104
 20
77.8307591122
  0
VERTEX
  8
0
 62
     2
 10
75.3005356061
 20
76.6433915612
  0
VERTEX
  8
0
 62
     2
 10
75.8076006638
 20
75.5318338689
  0
VERTEX
  8
0
 62
     2
 10
76.3055569099
 20
74.7612683219
  0
VERTEX
  8
0
 62
     2
 10
76.8832815977
 20
74.0273692277
  0
VERTEX
  8
0
 62
     2
 10
77.5109216439
 20
73.3156446111
  0
VERTEX
  8
0
 62
     2
 10
78.1586239504
 20
72.6116025042
  0
VERTEX
  8
0
 62
     2
 10
78.7965354303
 20
71.9007509318
  0
VERTEX
  8
0
 62
     2
 10
79.3948029893
 20
71.1685979035
  0
VERTEX
  8
0
 62
     2
 10
79.9235735404
 20
70.4006514442
  0
VERTEX
  8
0
 62
     2
 10
80.3529939855
 20
69.5824195933
  0
VERTEX
  8
0
 62
     2
 10
80.5108247305
 20
69.1830093977
  0
VERTEX
  8
0
 62
     2
 10
80.6434725391
 20
68.7719429997
  0
VERTEX
  8
0
 62
     2
 10
80.7534681389
 20
68.3514587325
  0
VERTEX
  8
0
 62
     2
 10
80.8433422575
 20
67.9237949219
  0
VERTEX
  8
0
 62
     2
 10
80.9156256186
 20
67.4911899012
  0
VERTEX
  8
0
 62
     2
 10
80.9728489498
 20
67.0558820036
  0
VERTEX
  8
0
 62
     2
 10
81.0175429749
 20
66.6201095548
  0
VERTEX
  8
0
 62
     2
 10
81.0522384213
 20
66.1861108807
  0
SEQEND
  8
0
 62
     2
  0
POLYLINE
  8
0
 62
     2
 66
     1
  0
VERTEX
  8
0
 62
     2
 10
81.0522384213
 20
66.1861108807
  0
VERTEX
  8
0
 62
     2
 10
81.4634171071
 20
66.0342198205
  0
VERTEX
  8
0
 62
     2
 10
81.8775495308
 20
65.8650360820
  0
VERTEX
  8
0
 62
     2
 10
82.2878584469
 20
65.6780514535
  0
VERTEX
  8
0
 62
     2
 10
82.6875666099
 20
65.4727577311
  0
VERTEX
  8
0
 62
     2
 10
83.0698967817
 20
65.2486466882
  0
VERTEX
  8
0
 62
     2
 10
83.4280717166
 20
65.0052101281
  0
VERTEX
  8
0
 62
     2
 10
83.7553141656
 20
64.7419398245
  0
VERTEX
  8
0
 62
     2
 10
84.0448468941
 20
64.4583275807
  0
VERTEX
  8
0
 62
     2
 10
84.6773459966
 20
63.4522712868
  0
VERTEX
  8
0
 62
     2
 10
84.9659126716
 20
62.2807668638
  0
VERTEX
  8
0
 62
     2
 10
84.9944931174
 20
60.9789044079
  0
VERTEX
  8
0
 62
     2
 10
84.8470335284
 20
59.5817740154
  0
VERTEX
  8
0
 62
     2
 10
84.6074801104
 20
58.1244657901
  0
VERTEX
  8
0
 62
     2
 10
84.3597790579
 20
56.6420698431
  0
VERTEX
  8
0
 62
     2
 10
84.1878765727
 20
55.1696762708
  0
VERTEX
  8
0
 62
     2
 10
84.1757188568
 20
53.7423751768
  0
VERTEX
  8
0
 62
     2
 10
84.2329062911
 20
53.1922351089
  0
VERTEX
  8
0
 62
     2
 10
84.3260874020
 20
52.6544756186
  0
VERTEX
  8
0
 62
     2
 10
84.4523708837
 20
52.1286828187
  0
VERTEX
  8
0
 62
     2
 10
84.6088654379
 20
51.6144427997
  0
VERTEX
  8
0
 62
     2
 10
84.7926797623
 20
51.1113416892
  0
VERTEX
  8
0
 62
     2
 10
85.0009225549
 20
50.6189655703
  0
VERTEX
  8
0
 62
     2
 10
85.2307025174
 20
50.1369005632
  0
VERTEX
  8
0
 62
     2
 10
85.4791283438
 20
49.6647327733
  0
VERTEX
  8
0
 62
     2
 10
85.5734714659
 20
49.4962443751
  0
VERTEX
  8
0
 62
     2
 10
85.6716238799
 20
49.3301240247
  0
VERTEX
  8
0
 62
     2
 10
85.7753275464
 20
49.1674953368
  0
VERTEX
  8
0
 62
     2
 10
85.8863244223
 20
49.0094819558
  0
VERTEX
  8
0
 62
     2
 10
86.0063564534
 20
48.8572074962
  0
VERTEX
  8
0
 62
     2
 10
86.1371656077
 20
48.7117955875
  0
VERTEX
  8
0
 62
     2
 10
86.2804938348
 20
48.5743698668
  0
VERTEX
  8
0
 62
     2
 10
86.4380830879
 20
48.4460539487
  0
VERTEX
  8
0
 62
     2
 10
86.8425010609
 20
48.1929882732
  0
VERTEX
  8
0
 62
     2
 10
87.2956585305
 20
47.9745977935
  0
VERTEX
  8
0
 62
     2
 10
87.7662800344
 20
47.7743905005
  0
VERTEX
  8
0
 62
     2
 10
88.2230900990
 20
47.5758743849
  0
VERTEX
  8
0
 62
     2
 10
88.6348132620
 20
47.3625574303
  0
VERTEX
  8
0
 62
     2
 10
88.9701740610
 20
47.1179476422
  0
VERTEX
  8
0
 62
     2
 10
89.1978970187
 20
46.8255530041
  0
VERTEX
  8
0
 62
     2
 10
89.2867066803
 20
46.4688815069
  0
VERTEX
  8
0
 62
     2
 10
89.2761122713
 20
46.2991848257
  0
VERTEX
  8
0
 62
     2
 10
89.2383946086
 20
46.1215216857
  0
VERTEX
  8
0
 62
     2
 10
89.1757732833
 20
45.9418512848
  0
VERTEX
  8
0
 62
     2
 10
89.0904678831
 20
45.7661328134
  0
VERTEX
  8
0
 62
     2
 10
88.9846979993
 20
45.6003254619
  0
VERTEX
  8
0
 62
     2
 10
88.8606832305
 20
45.4503884208
  0
VERTEX
  8
0
 62
     2
 10
88.7206431607
 20
45.3222808805
  0
VERTEX
  8
0
 62
     2
 10
88.5667973886
 20
45.2219620389
  0
VERTEX
  8
0
 62
     2
 10
88.4485568645
 20
45.1695714039
  0
VERTEX
  8
0
 62
     2
 10
88.3252261298
 20
45.1330740717
  0
VERTEX
  8
0
 62
     2
 10
88.1977397444
 20
45.1108144712
  0
VERTEX
  8
0
 62
     2
 10
88.0670322718
 20
45.1011370090
  0
VERTEX
  8
0
 62
     2
 10
87.9340382720
 20
45.1023861211
  0
VERTEX
  8
0
 62
     2
 10
87.7996923084
 20
45.1129062143
  0
VERTEX
  8
0
 62
     2
 10
87.6649289372
 20
45.1310417321
  0
VERTEX
  8
0
 62
     2
 10
87.5306827257
 20
45.1551370737
  0
VERTEX
  8
0
 62
     2
 10
87.2017936165
 20
45.2345733684
  0
VERTEX
  8
0
 62
     2
 10
86.8835377785
 20
45.3397502345
  0
VERTEX
  8
0
 62
     2
 10
86.5775031204
 20
45.4695893344
  0
VERTEX
  8
0
 62
     2
 10
86.2852775434
 20
45.6230123010
  0
VERTEX
  8
0
 62
     2
 10
86.0084489564
 20
45.7989407819
  0
VERTEX
  8
0
 62
     2
 10
85.7309520858
 20
46.0097043183
  0
SEQEND
  8
0
 62
     2
  0
POLYLINE
  8
0
 62
     2
 66
     1
  0
VERTEX
  8
0
 62
     2
 10
72.5015510263
 20
87.0834310692
  0
VERTEX
  8
0
 62
     2
 10
72.9424995387
 20
87.6064656866
  0
VERTEX
  8
0
 62
     2
 10
73.3867335336
 20
88.1199559313
  0
VERTEX
  8
0
 62
     2
 10
73.8273752460
 20
88.6334249940
  0
VERTEX
  8
0
 62
     2
 10
74.2575469146
 20
89.1563960579
  0
VERTEX
  8
0
 62
     2
 10
74.6703707779
 20
89.6983922911
  0
VERTEX
  8
0
 62
     2
 10
75.0589690672
 20
90.2689368766
  0
VERTEX
  8
0
 62
     2
 10
75.4164640213
 20
90.8775529903
  0
VERTEX
  8
0
 62
     2
 10
75.7359778824
 20
91.5337638226
  0
VERTEX
  8
0
 62
     2
 10
75.9445029961
 20
92.0468112123
  0
VERTEX
  8
0
 62
     2
 10
76.1411065029
 20
92.5730086607
  0
VERTEX
  8
0
 62
     2
 10
76.3379554095
 20
93.0948346895
  0
VERTEX
  8
0
 62
     2
 10
76.5472167114
 20
93.5947678280
  0
VERTEX
  8
0
 62
     2
 10
76.7810574154
 20
94.0552865830
  0
VERTEX
  8
0
 62
     2
 10
77.0516445132
 20
94.4588694912
  0
VERTEX
  8
0
 62
     2
 10
77.3711450117
 20
94.7879950669
  0
VERTEX
  8
0
 62
     2
 10
77.7517259138
 20
95.0251418319
  0
VERTEX
  8
0
 62
     2
 10
77.9307820032
 20
95.0928646442
  0
VERTEX
  8
0
 62
     2
 10
78.1212424802
 20
95.1418106300
  0
VERTEX
  8
0
 62
     2
 10
78.3218055161
 20
95.1721979719
  0
VERTEX
  8
0
 62
     2
 10
78.5311692784
 20
95.1842448381
  0
VERTEX
  8
0
 62
     2
 10
78.7480319383
 20
95.1781694186
  0
VERTEX
  8
0
 62
     2
 10
78.9710916633
 20
95.1541898888
  0
VERTEX
  8
0
 62
     2
 10
79.1990466247
 20
95.1125244242
  0
VERTEX
  8
0
 62
     2
 10
79.4305949899
 20
95.0533912000
  0
VERTEX
  8
0
 62
     2
 10
79.6735006662
 20
94.9733870667
  0
VERTEX
  8
0
 62
     2
 10
79.9110340828
 20
94.8752345633
  0
VERTEX
  8
0
 62
     2
 10
80.1353291923
 20
94.7595569757
  0
VERTEX
  8
0
 62
     2
 10
80.3385199549
 20
94.6269775969
  0
VERTEX
  8
0
 62
     2
 10
80.5127403306
 20
94.4781197128
  0
VERTEX
  8
0
 62
     2
 10
80.6501242759
 20
94.3136066091
  0
VERTEX
  8
0
 62
     2
 10
80.7428057471
 20
94.1340615791
  0
VERTEX
  8
0
 62
     2
 10
80.7829187082
 20
93.9401079011
  0
VERTEX
  8
0
 62
     2
 10
80.7776146138
 20
93.8054722887
  0
VERTEX
  8
0
 62
     2
 10
80.7485368082
 20
93.6678095055
  0
VERTEX
  8
0
 62
     2
 10
80.6980454231
 20
93.5300535899
  0
VERTEX
  8
0
 62
     2
 10
80.6285005825
 20
93.3951385957
  0
VERTEX
  8
0
 62
     2
 10
80.5422624180
 20
93.2659985688
  0
VERTEX
  8
0
 62
     2
 10
80.4416910576
 20
93.1455675703
  0
VERTEX
  8
0
 62
     2
 10
80.3291466290
 20
93.0367796388
  0
VERTEX
  8
0
 62
     2
 10
80.2069892565
 20
92.9425688279
  0
VERTEX
  8
0
 62
     2
 10
80.0439826491
 20
92.8484514770
  0
VERTEX
  8
0
 62
     2
 10
79.8719278367
 20
92.7794881579
  0
VERTEX
  8
0
 62
     2
 10
79.6931090856
 20
92.7334718373
  0
VERTEX
  8
0
 62
     2
 10
79.5098106617
 20
92.7081954521
  0
VERTEX
  8
0
 62
     2
 10
79.3243168386
 20
92.7014519614
  0
VERTEX
  8
0
 62
     2
 10
79.1389118785
 20
92.7110343170
  0
VERTEX
  8
0
 62
     2
 10
78.9323603789
 20
92.7377810669
  0
SEQEND
  8
0
 62
     2
  0
POLYLINE
  8
0
 62
     2
 66
     1
  0
VERTEX
  8
0
 62
     2
 10
74.2149202841
 20
99.4422425148
  0
VERTEX
  8
0
 62
     2
 10
74.1936266290
 20
99.0978182745
  0
VERTEX
  8
0
 62
     2
 10
74.1481201740
 20
98.7377659720
  0
VERTEX
  8
0
 62
     2
 10
74.0758584270
 20
98.3750285026
  0
VERTEX
  8
0
 62
     2
 10
73.9742988998
 20
98.0225487617
  0
VERTEX
  8
0
 62
     2
 10
73.8408991078
 20
97.6932696444
  0
VERTEX
  8
0
 62
     2
 10
73.6731165590
 20
97.4001340312
  0
VERTEX
  8
0
 62
     2
 10
73.4684087688
 20
97.1560848173
  0
VERTEX
  8
0
 62
     2
 10
73.2242332453
 20
96.9740648982
  0
VERTEX
  8
0
 62
     2
 10
72.9863677452
 20
96.8746621427
  0
VERTEX
  8
0
 62
     2
 10
72.7247442136
 20
96.8159094271
  0
VERTEX
  8
0
 62
     2
 10
72.4456471333
 20
96.7848423836
  0
VERTEX
  8
0
 62
     2
 10
72.1553609835
 20
96.7684966591
  0
VERTEX
  8
0
 62
     2
 10
71.8601702506
 20
96.7539078784
  0
VERTEX
  8
0
 62
     2
 10
71.5663594136
 20
96.7281116810
  0
VERTEX
  8
0
 62
     2
 10
71.2802129554
 20
96.6781437141
  0
VERTEX
  8
0
 62
     2
 10
71.0080153549
 20
96.5910395947
  0
VERTEX
  8
0
 62
     2
 10
70.8094841445
 20
96.4907772583
  0
VERTEX
  8
0
 62
     2
 10
70.6247891689
 20
96.3637056318
  0
VERTEX
  8
0
 62
     2
 10
70.4554941001
 20
96.2134039816
  0
VERTEX
  8
0
 62
     2
 10
70.3031626100
 20
96.0434515741
  0
VERTEX
  8
0
 62
     2
 10
70.1693583669
 20
95.8574276683
  0
VERTEX
  8
0
 62
     2
 10
70.0556450391
 20
95.6589115229
  0
VERTEX
  8
0
 62
     2
 10
69.9635862986
 20
95.4514824045
  0
VERTEX
  8
0
 62
     2
 10
69.8947458172
 20
95.2387195718
  0
VERTEX
  8
0
 62
     2
 10
69.8440649601
 20
94.9835839462
  0
VERTEX
  8
0
 62
     2
 10
69.8230210224
 20
94.7264336911
  0
VERTEX
  8
0
 62
     2
 10
69.8264220262
 20
94.4677199018
  0
VERTEX
  8
0
 62
     2
 10
69.8490759971
 20
94.2078936812
  0
VERTEX
  8
0
 62
     2
 10
69.8857909532
 20
93.9474061397
  0
VERTEX
  8
0
 62
     2
 10
69.9313749204
 20
93.6867083651
  0
VERTEX
  8
0
 62
     2
 10
69.9806359241
 20
93.4262514752
  0
VERTEX
  8
0
 62
     2
 10
70.0283819827
 20
93.1664865580
  0
VERTEX
  8
0
 62
     2
 10
70.0923658962
 20
92.7578500998
  0
VERTEX
  8
0
 62
     2
 10
70.1444332468
 20
92.3513182965
  0
VERTEX
  8
0
 62
     2
 10
70.1894348057
 20
91.9461380806
  0
VERTEX
  8
0
 62
     2
 10
70.2322213257
 20
91.5415564072
  0
VERTEX
  8
0
 62
     2
 10
70.2776435705
 20
91.1368202236
  0
VERTEX
  8
0
 62
     2
 10
70.3305523003
 20
90.7311764625
  0
VERTEX
  8
0
 62
     2
 10
70.3957982714
 20
90.3238720787
  0
VERTEX
  8
0
 62
     2
 10
70.4782322476
 20
89.9141540047
  0
VERTEX
  8
0
 62
     2
 10
70.5627819689
 20
89.5736227450
  0
VERTEX
  8
0
 62
     2
 10
70.6645186560
 20
89.2355208141
  0
VERTEX
  8
0
 62
     2
 10
70.7855411710
 20
88.9044455331
  0
VERTEX
  8
0
 62
     2
 10
70.9279483685
 20
88.5849942532
  0
VERTEX
  8
0
 62
     2
 10
71.0938390995
 20
88.2817642879
  0
VERTEX
  8
0
 62
     2
 10
71.2853122296
 20
87.9993529808
  0
VERTEX
  8
0
 62
     2
 10
71.5044666061
 20
87.7423576531
  0
VERTEX
  8
0
 62
     2
 10
71.7534010874
 20
87.5153756407
  0
VERTEX
  8
0
 62
     2
 10
71.8390764425
 20
87.4501884547
  0
VERTEX
  8
0
 62
     2
 10
71.9276479053
 20
87.3884006557
  0
VERTEX
  8
0
 62
     2
 10
72.0187879110
 20
87.3299117130
  0
VERTEX
  8
0
 62
     2
 10
72.1121688837
 20
87.2746210810
  0
VERTEX
  8
0
 62
     2
 10
72.2074632550
 20
87.2224282366
  0
VERTEX
  8
0
 62
     2
 10
72.3043434488
 20
87.1732326490
  0
VERTEX
  8
0
 62
     2
 10
72.4024818966
 20
87.1269337651
  0
VERTEX
  8
0
 62
     2
 10
72.5015510263
 20
87.0834310692
  0
SEQEND
  8
0
 62
     2
  0
POLYLINE
  8
0
 62
     2
 66
     1
  0
VERTEX
  8
0
 62
     2
 10
71.1055009121
 20
100.2154460740
  0
VERTEX
  8
0
 62
     2
 10
71.0003632622
 20
99.9434557822
  0
VERTEX
  8
0
 62
     2
 10
70.8852598312
 20
99.6737713781
  0
VERTEX
  8
0
 62
     2
 10
70.7594461011
 20
99.4081606981
  0
VERTEX
  8
0
 62
     2
 10
70.6221775690
 20
99.1483915788
  0
VERTEX
  8
0
 62
     2
 10
70.4727097133
 20
98.8962318492
  0
VERTEX
  8
0
 62
     2
 10
70.3102980236
 20
98.6534493533
  0
VERTEX
  8
0
 62
     2
 10
70.1341979856
 20
98.4218119201
  0
VERTEX
  8
0
 62
     2
 10
69.9436650889
 20
98.2030873936
  0
VERTEX
  8
0
 62
     2
 10
69.7841627279
 20
98.0413555694
  0
VERTEX
  8
0
 62
     2
 10
69.6174131202
 20
97.8866540980
  0
VERTEX
  8
0
 62
     2
 10
69.4454926605
 20
97.7369947773
  0
VERTEX
  8
0
 62
     2
 10
69.2704777399
 20
97.5903894198
  0
VERTEX
  8
0
 62
     2
 10
69.0944447572
 20
97.4448498082
  0
VERTEX
  8
0
 62
     2
 10
68.9194701070
 20
97.2983877626
  0
VERTEX
  8
0
 62
     2
 10
68.7476301843
 20
97.1490150657
  0
VERTEX
  8
0
 62
     2
 10
68.5810013840
 20
96.9947435227
  0
VERTEX
  8
0
 62
     2
 10
68.1213254312
 20
96.4918779027
  0
VERTEX
  8
0
 62
     2
 10
67.7197973857
 20
95.9372302857
  0
VERTEX
  8
0
 62
     2
 10
67.3686134795
 20
95.3413460892
  0
VERTEX
  8
0
 62
     2
 10
67.0599699559
 20
94.7147707459
  0
VERTEX
  8
0
 62
     2
 10
66.7860630507
 20
94.0680496585
  0
VERTEX
  8
0
 62
     2
 10
66.5390890071
 20
93.4117282596
  0
VERTEX
  8
0
 62
     2
 10
66.3112440648
 20
92.7563519669
  0
VERTEX
  8
0
 62
     2
 10
66.0947244631
 20
92.1124662054
  0
VERTEX
  8
0
 62
     2
 10
66.0103568712
 20
91.8597014588
  0
VERTEX
  8
0
 62
     2
 10
65.9313084910
 20
91.6074390900
  0
VERTEX
  8
0
 62
     2
 10
65.8623342941
 20
91.3526508403
  0
VERTEX
  8
0
 62
     2
 10
65.8081892671
 20
91.0923084584
  0
VERTEX
  8
0
 62
     2
 10
65.7736283818
 20
90.8233837005
  0
VERTEX
  8
0
 62
     2
 10
65.7634066211
 20
90.5428483081
  0
VERTEX
  8
0
 62
     2
 10
65.7822789604
 20
90.2476740372
  0
VERTEX
  8
0
 62
     2
 10
65.8350003826
 20
89.9348326367
  0
VERTEX
  8
0
 62
     2
 10
66.0012120957
 20
89.3717654911
  0
VERTEX
  8
0
 62
     2
 10
66.2347707877
 20
88.7816410851
  0
VERTEX
  8
0
 62
     2
 10
66.4951980801
 20
88.1952066165
  0
VERTEX
  8
0
 62
     2
 10
66.7420155870
 20
87.6432092827
  0
VERTEX
  8
0
 62
     2
 10
66.9347449335
 20
87.1563962963
  0
VERTEX
  8
0
 62
     2
 10
67.0329077335
 20
86.7655148473
  0
VERTEX
  8
0
 62
     2
 10
66.9960256087
 20
86.5013121334
  0
VERTEX
  8
0
 62
     2
 10
66.7836201804
 20
86.3945353594
  0
VERTEX
  8
0
 62
     2
 10
66.6609565223
 20
86.3986879927
  0
VERTEX
  8
0
 62
     2
 10
66.5168938691
 20
86.4188509923
  0
VERTEX
  8
0
 62
     2
 10
66.3566998260
 20
86.4478037101
  0
VERTEX
  8
0
 62
     2
 10
66.1856420057
 20
86.4783254903
  0
VERTEX
  8
0
 62
     2
 10
66.0089880170
 20
86.5031956848
  0
VERTEX
  8
0
 62
     2
 10
65.8320054652
 20
86.5151936379
  0
VERTEX
  8
0
 62
     2
 10
65.6599619629
 20
86.5070987087
  0
VERTEX
  8
0
 62
     2
 10
65.4981251152
 20
86.4716902342
  0
VERTEX
  8
0
 62
     2
 10
65.3019504713
 20
86.3716195789
  0
VERTEX
  8
0
 62
     2
 10
65.1362285072
 20
86.2189600882
  0
VERTEX
  8
0
 62
     2
 10
65.0027844588
 20
86.0250112680
  0
VERTEX
  8
0
 62
     2
 10
64.9034435729
 20
85.8010726464
  0
VERTEX
  8
0
 62
     2
 10
64.8400310816
 20
85.5584437442
  0
VERTEX
  8
0
 62
     2
 10
64.8143722246
 20
85.3084240746
  0
VERTEX
  8
0
 62
     2
 10
64.8282922486
 20
85.0623131585
  0
VERTEX
  8
0
 62
     2
 10
64.8836163858
 20
84.8314105165
  0
VERTEX
  8
0
 62
     2
 10
64.9670989493
 20
84.6468010959
  0
VERTEX
  8
0
 62
     2
 10
65.0766353773
 20
84.4791164514
  0
VERTEX
  8
0
 62
     2
 10
65.2043968419
 20
84.3245048416
  0
VERTEX
  8
0
 62
     2
 10
65.3425545337
 20
84.1791145471
  0
VERTEX
  8
0
 62
     2
 10
65.4832796248
 20
84.0390938115
  0
VERTEX
  8
0
 62
     2
 10
65.6187433021
 20
83.9005909157
  0
VERTEX
  8
0
 62
     2
 10
65.7411167415
 20
83.7597541255
  0
VERTEX
  8
0
 62
     2
 10
65.8425711299
 20
83.6127316919
  0
VERTEX
  8
0
 62
     2
 10
65.9590409825
 20
83.3199688834
  0
VERTEX
  8
0
 62
     2
 10
65.9967626499
 20
82.9991299626
  0
VERTEX
  8
0
 62
     2
 10
65.9731448943
 20
82.6557121691
  0
VERTEX
  8
0
 62
     2
 10
65.9055964815
 20
82.2952127498
  0
VERTEX
  8
0
 62
     2
 10
65.8115261661
 20
81.9231289518
  0
VERTEX
  8
0
 62
     2
 10
65.7083427178
 20
81.5449580145
  0
VERTEX
  8
0
 62
     2
 10
65.6134548912
 20
81.1661971849
  0
VERTEX
  8
0
 62
     2
 10
65.5442714559
 20
80.7923437101
  0
VERTEX
  8
0
 62
     2
 10
65.5242229792
 20
80.0829805773
  0
VERTEX
  8
0
 62
     2
 10
65.6464397365
 20
79.4080521879
  0
VERTEX
  8
0
 62
     2
 10
65.8856236095
 20
78.7615548116
  0
VERTEX
  8
0
 62
     2
 10
66.2164764831
 20
78.1374847335
  0
VERTEX
  8
0
 62
     2
 10
66.6137002276
 20
77.5298382235
  0
VERTEX
  8
0
 62
     2
 10
67.0519967320
 20
76.9326115590
  0
VERTEX
  8
0
 62
     2
 10
67.5060678737
 20
76.3398010176
  0
VERTEX
  8
0
 62
     2
 10
67.9506155307
 20
75.7454028842
  0
VERTEX
  8
0
 62
     2
 10
68.4101882072
 20
75.0753948358
  0
VERTEX
  8
0
 62
     2
 10
68.8300448077
 20
74.3964350936
  0
VERTEX
  8
0
 62
     2
 10
69.2136959339
 20
73.7089956295
  0
VERTEX
  8
0
 62
     2
 10
69.5646521913
 20
73.0135484379
  0
VERTEX
  8
0
 62
     2
 10
69.8864241781
 20
72.3105654982
  0
VERTEX
  8
0
 62
     2
 10
70.1825225035
 20
71.6005187821
  0
VERTEX
  8
0
 62
     2
 10
70.4564577656
 20
70.8838802767
  0
VERTEX
  8
0
 62
     2
 10
70.7117405663
 20
70.1611219686
  0
VERTEX
  8
0
 62
     2
 10
70.8855102191
 20
69.6377280992
  0
VERTEX
  8
0
 62
     2
 10
71.0513131933
 20
69.1107220095
  0
VERTEX
  8
0
 62
     2
 10
71.2090125995
 20
68.5794119355
  0
VERTEX
  8
0
 62
     2
 10
71.3584715555
 20
68.0431061280
  0
VERTEX
  8
0
 62
     2
 10
71.4995531792
 20
67.5011128303
  0
VERTEX
  8
0
 62
     2
 10
71.6321205775
 20
66.9527402860
  0
VERTEX
  8
0
 62
     2
 10
71.7560368719
 20
66.3972967383
  0
VERTEX
  8
0
 62
     2
 10
71.8711651730
 20
65.8340904382
  0
VERTEX
  8
0
 62
     2
 10
71.9889160002
 20
65.1916050878
  0
VERTEX
  8
0
 62
     2
 10
72.0889377313
 20
64.5432224092
  0
VERTEX
  8
0
 62
     2
 10
72.1647864187
 20
63.8937354577
  0
VERTEX
  8
0
 62
     2
 10
72.2100181075
 20
63.2479372662
  0
VERTEX
  8
0
 62
     2
 10
72.2181888463
 20
62.6106209052
  0
VERTEX
  8
0
 62
     2
 10
72.1828546802
 20
61.9865794223
  0
VERTEX
  8
0
 62
     2
 10
72.0975716615
 20
61.3806058583
  0
VERTEX
  8
0
 62
     2
 10
71.9558958354
 20
60.7974932831
  0
VERTEX
  8
0
 62
     2
 10
71.8589669334
 20
60.5075887409
  0
VERTEX
  8
0
 62
     2
 10
71.7447538393
 20
60.2234545392
  0
VERTEX
  8
0
 62
     2
 10
71.6126056554
 20
59.9435408306
  0
VERTEX
  8
0
 62
     2
 10
71.4618714879
 20
59.6662977603
  0
VERTEX
  8
0
 62
     2
 10
71.2919004427
 20
59.3901754659
  0
VERTEX
  8
0
 62
     2
 10
71.1020416262
 20
59.1136241075
  0
VERTEX
  8
0
 62
     2
 10
70.8916441443
 20
58.8350938228
  0
VERTEX
  8
0
 62
     2
 10
70.6600570956
 20
58.5530347493
  0
VERTEX
  8
0
 62
     2
 10
70.4347229617
 20
58.2982332748
  0
VERTEX
  8
0
 62
     2
 10
70.1952910589
 20
58.0510559273
  0
VERTEX
  8
0
 62
     2
 10
69.9451899136
 20
57.8232022938
  0
VERTEX
  8
0
 62
     2
 10
69.6878480556
 20
57.6263719541
  0
VERTEX
  8
0
 62
     2
 10
69.4266940111
 20
57.4722644952
  0
VERTEX
  8
0
 62
     2
 10
68.5415088253
 20
57.1348764864
  0
SEQEND
  8
0
 62
     2
  0
CIRCLE
  8
0
 62
     2
 10
69.6173884960
 20
53.0035433811
 40
1.0181054835
  0
CIRCLE
  8
0
 62
     2
 10
54.7691004480
 20
52.3282241341
 40
1.0181054835
  0
POLYLINE
  8
0
 62
     2
 66
     1
  0
VERTEX
  8
0
 62
     2
 10
94.9117513316
 20
27.4335296345
  0
VERTEX
  8
0
 62
     2
 10
94.7287696580
 20
27.6605766532
  0
VERTEX
  8
0
 62
     2
 10
94.5527678298
 20
27.8951013502
  0
VERTEX
  8
0
 62
     2
 10
94.3856490942
 20
28.1368645769
  0
VERTEX
  8
0
 62
     2
 10
94.2293167057
 20
28.3856271771
  0
VERTEX
  8
0
 62
     2
 10
94.0856739002
 20
28.6411500019
  0
VERTEX
  8
0
 62
     2
 10
93.9566239359
 20
28.9031938952
  0
VERTEX
  8
0
 62
     2
 10
93.8440700563
 20
29.1715197158
  0
VERTEX
  8
0
 62
     2
 10
93.7499155084
 20
29.4458883074
  0
VERTEX
  8
0
 62
     2
 10
93.6896028163
 20
29.6648873207
  0
VERTEX
  8
0
 62
     2
 10
93.6390022168
 20
29.8866474521
  0
VERTEX
  8
0
 62
     2
 10
93.5953536758
 20
30.1103645977
  0
VERTEX
  8
0
 62
     2
 10
93.5558971668
 20
30.3352346462
  0
VERTEX
  8
0
 62
     2
 10
93.5178726630
 20
30.5604534787
  0
VERTEX
  8
0
 62
     2
 10
93.4785201306
 20
30.7852169987
  0
VERTEX
  8
0
 62
     2
 10
93.4350795428
 20
31.0087210876
  0
VERTEX
  8
0
 62
     2
 10
93.3847908693
 20
31.2301616338
  0
VERTEX
  8
0
 62
     2
 10
93.1791344414
 20
31.8796854955
  0
VERTEX
  8
0
 62
     2
 10
92.8995595405
 20
32.5047427905
  0
VERTEX
  8
0
 62
     2
 10
92.5591006445
 20
33.1068190676
  0
VERTEX
  8
0
 62
     2
 10
92.1707922386
 20
33.6873998758
  0
VERTEX
  8
0
 62
     2
 10
91.7476688007
 20
34.2479707566
  0
VERTEX
  8
0
 62
     2
 10
91.3027648198
 20
34.7900172514
  0
VERTEX
  8
0
 62
     2
 10
90.8491147736
 20
35.3150249016
  0
VERTEX
  8
0
 62
     2
 10
90.3997531438
 20
35.8244792637
  0
VERTEX
  8
0
 62
     2
 10
90.2230362537
 20
36.0239261132
  0
VERTEX
  8
0
 62
     2
 10
90.0440948213
 20
36.2185152066
  0
VERTEX
  8
0
 62
     2
 10
89.8579288217
 20
36.4056427371
  0
VERTEX
  8
0
 62
     2
 10
89.6595382186
 20
36.5827048984
  0
VERTEX
  8
0
 62
     2
 10
89.4439229870
 20
36.7470978838
  0
VERTEX
  8
0
 62
     2
 10
89.2060830908
 20
36.8962178793
  0
VERTEX
  8
0
 62
     2
 10
88.9410185011
 20
37.0274610934
  0
VERTEX
  8
0
 62
     2
 10
88.6437291930
 20
37.1382237044
  0
VERTEX
  8
0
 62
     2
 10
88.0729928816
 20
37.2758137104
  0
VERTEX
  8
0
 62
     2
 10
87.4451508092
 20
37.3686081511
  0
VERTEX
  8
0
 62
     2
 10
86.8070700186
 20
37.4362887335
  0
VERTEX
  8
0
 62
     2
 10
86.2056175562
 20
37.4985371646
  0
VERTEX
  8
0
 62
     2
 10
85.6876604649
 20
37.5750351515
  0
VERTEX
  8
0
 62
     2
 10
85.3000657985
 20
37.6854644012
  0
VERTEX
  8
0
 62
     2
 10
85.0897006000
 20
37.8495066133
  0
VERTEX
  8
0
 62
     2
 10
85.1034319157
 20
38.0868434948
  0
VERTEX
  8
0
 62
     2
 10
85.1683600338
 20
38.1909970236
  0
VERTEX
  8
0
 62
     2
 10
85.2578530329
 20
38.3056774405
  0
VERTEX
  8
0
 62
     2
 10
85.3630238416
 20
38.4299331945
  0
VERTEX
  8
0
 62
     2
 10
85.4749853889
 20
38.5628127199
  0
VERTEX
  8
0
 62
     2
 10
85.5848506035
 20
38.7033644658
  0
VERTEX
  8
0
 62
     2
 10
85.6837324107
 20
38.8506368738
  0
VERTEX
  8
0
 62
     2
 10
85.7627437430
 20
39.0036783856
  0
VERTEX
  8
0
 62
     2
 10
85.8129975291
 20
39.1615374428
  0
VERTEX
  8
0
 62
     2
 10
85.8244211244
 20
39.3814649922
  0
VERTEX
  8
0
 62
     2
 10
85.7750751095
 20
39.6013141689
  0
VERTEX
  8
0
 62
     2
 10
85.6738325300
 20
39.8138545123
  0
VERTEX
  8
0
 62
     2
 10
85.5295664387
 20
40.0118555543
  0
VERTEX
  8
0
 62
     2
 10
85.3511498885
 20
40.1880868342
  0
VERTEX
  8
0
 62
     2
 10
85.1474559287
 20
40.3353178915
  0
VERTEX
  8
0
 62
     2
 10
84.9273576120
 20
40.4463182580
  0
VERTEX
  8
0
 62
     2
 10
84.6997279914
 20
40.5138574731
  0
VERTEX
  8
0
 62
     2
 10
84.4981102625
 20
40.5338641596
  0
VERTEX
  8
0
 62
     2
 10
84.2981228845
 20
40.5228451532
  0
VERTEX
  8
0
 62
     2
 10
84.1003445739
 20
40.4895062786
  0
VERTEX
  8
0
 62
     2
 10
83.9053540359
 20
40.4425533605
  0
VERTEX
  8
0
 62
     2
 10
83.7137299793
 20
40.3906922233
  0
VERTEX
  8
0
 62
     2
 10
83.5260511132
 20
40.3426286843
  0
VERTEX
  8
0
 62
     2
 10
83.3428961503
 20
40.3070685756
  0
VERTEX
  8
0
 62
     2
 10
83.1648437994
 20
40.2927177143
  0
VERTEX
  8
0
 62
     2
 10
82.8530688452
 20
40.3382332665
  0
VERTEX
  8
0
 62
     2
 10
82.5563533547
 20
40.4659848031
  0
VERTEX
  8
0
 62
     2
 10
82.2707536983
 20
40.6581472796
  0
VERTEX
  8
0
 62
     2
 10
81.9923262501
 20
40.8968956289
  0
VERTEX
  8
0
 62
     2
 10
81.7171273807
 20
41.1644048136
  0
VERTEX
  8
0
 62
     2
 10
81.4412134679
 20
41.4428497669
  0
VERTEX
  8
0
 62
     2
 10
81.1606408822
 20
41.7144054514
  0
VERTEX
  8
0
 62
     2
 10
80.8714659902
 20
41.9612468001
  0
VERTEX
  8
0
 62
     2
 10
80.2671637403
 20
42.3332908568
  0
VERTEX
  8
0
 62
     2
 10
79.6215502301
 20
42.5649122339
  0
VERTEX
  8
0
 62
     2
 10
78.9420751425
 20
42.6810216126
  0
VERTEX
  8
0
 62
     2
 10
78.2361881638
 20
42.7065296587
  0
VERTEX
  8
0
 62
     2
 10
77.5113389733
 20
42.6663470608
  0
VERTEX
  8
0
 62
     2
 10
76.7749772610
 20
42.5853844848
  0
VERTEX
  8
0
 62
     2
 10
76.0345527025
 20
42.4885526118
  0
VERTEX
  8
0
 62
     2
 10
75.2975149879
 20
42.4007621151
  0
VERTEX
  8
0
 62
     2
 10
74.4874846580
 20
42.3377645281
  0
VERTEX
  8
0
 62
     2
 10
73.6895599717
 20
42.3136379164
  0
VERTEX
  8
0
 62
     2
 10
72.9023943747
 20
42.3251060215
  0
VERTEX
  8
0
 62
     2
 10
72.1246413121
 20
42.3688925844
  0
VERTEX
  8
0
 62
     2
 10
71.3549542295
 20
42.4417213392
  0
VERTEX
  8
0
 62
     2
 10
70.5919865759
 20
42.5403160271
  0
VERTEX
  8
0
 62
     2
 10
69.8343917968
 20
42.6614003819
  0
VERTEX
  8
0
 62
     2
 10
69.0808233375
 20
42.8016981450
  0
VERTEX
  8
0
 62
     2
 10
68.5406661237
 20
42.9129061443
  0
VERTEX
  8
0
 62
     2
 10
68.0013639758
 20
43.0328196031
  0
VERTEX
  8
0
 62
     2
 10
67.4623862522
 20
43.1619029459
  0
VERTEX
  8
0
 62
     2
 10
66.9232023189
 20
43.3006205973
  0
VERTEX
  8
0
 62
     2
 10
66.3832815455
 20
43.4494369817
  0
VERTEX
  8
0
 62
     2
 10
65.8420932906
 20
43.6088165161
  0
VERTEX
  8
0
 62
     2
 10
65.2991069200
 20
43.7792236325
  0
VERTEX
  8
0
 62
     2
 10
64.7537918033
 20
43.9611227480
  0
VERTEX
  8
0
 62
     2
 10
64.1385077590
 20
44.1803902131
  0
VERTEX
  8
0
 62
     2
 10
63.5269810239
 20
44.4179601934
  0
VERTEX
  8
0
 62
     2
 10
62.9265844727
 20
44.6770167839
  0
VERTEX
  8
0
 62
     2
 10
62.3446909951
 20
44.9607440871
  0
VERTEX
  8
0
 62
     2
 10
61.7886734659
 20
45.2723261979
  0
VERTEX
  8
0
 62
     2
 10
61.2659047673
 20
45.6149472263
  0
VERTEX
  8
0
 62
     2
 10
60.7837577814
 20
45.9917912674
  0
VERTEX
  8
0
 62
     2
 10
60.3496053906
 20
46.4060424161
  0
VERTEX
  8
0
 62
     2
 10
60.1470051388
 20
46.6349375886
  0
VERTEX
  8
0
 62
     2
 10
59.9580442513
 20
46.8759161276
  0
VERTEX
  8
0
 62
     2
 10
59.7817059623
 20
47.1303166640
  0
VERTEX
  8
0
 62
     2
 10
59.6169735024
 20
47.3994778213
  0
VERTEX
  8
0
 62
     2
 10
59.4628301056
 20
47.6847382080
  0
VERTEX
  8
0
 62
     2
 10
59.3182590099
 20
47.9874364403
  0
VERTEX
  8
0
 62
     2
 10
59.1822434494
 20
48.3089111563
  0
VERTEX
  8
0
 62
     2
 10
59.0537666509
 20
48.6505009574
  0
VERTEX
  8
0
 62
     2
 10
58.9457691664
 20
48.9730467763
  0
VERTEX
  8
0
 62
     2
 10
58.8514232541
 20
49.3039895636
  0
VERTEX
  8
0
 62
     2
 10
58.7791467922
 20
49.6345103201
  0
VERTEX
  8
0
 62
     2
 10
58.7373576516
 20
49.9557900768
  0
VERTEX
  8
0
 62
     2
 10
58.7344736995
 20
50.2590098497
  0
VERTEX
  8
0
 62
     2
 10
58.7789128067
 20
50.5353506473
  0
VERTEX
  8
0
 62
     2
 10
58.7801221440
 20
50.5382555988
  0
SEQEND
  8
0
 62
     2
  0
POLYLINE
  8
0
 62
     2
 66
     1
  0
VERTEX
  8
0
 62
     2
 10
92.6874277273
 20
25.1272952449
  0
VERTEX
  8
0
 62
     2
 10
92.3997944052
 20
25.3179482114
  0
VERTEX
  8
0
 62
     2
 10
92.1107331941
 20
25.5373841044
  0
VERTEX
  8
0
 62
     2
 10
91.8327242078
 20
25.7813333464
  0
VERTEX
  8
0
 62
     2
 10
91.5782475600
 20
26.0455263522
  0
VERTEX
  8
0
 62
     2
 10
91.3597833717
 20
26.3256935221
  0
VERTEX
  8
0
 62
     2
 10
91.1898117604
 20
26.6175652784
  0
VERTEX
  8
0
 62
     2
 10
91.0808128359
 20
26.9168720287
  0
VERTEX
  8
0
 62
     2
 10
91.0452667194
 20
27.2193441954
  0
VERTEX
  8
0
 62
     2
 10
91.0781141611
 20
27.4750431371
  0
VERTEX
  8
0
 62
     2
 10
91.1580445821
 20
27.7309921202
  0
VERTEX
  8
0
 62
     2
 10
91.2706882784
 20
27.9882308063
  0
VERTEX
  8
0
 62
     2
 10
91.4016755352
 20
28.2477988493
  0
VERTEX
  8
0
 62
     2
 10
91.5366366485
 20
28.5107359108
  0
VERTEX
  8
0
 62
     2
 10
91.6612019072
 20
28.7780816597
  0
VERTEX
  8
0
 62
     2
 10
91.7610016035
 20
29.0508757499
  0
VERTEX
  8
0
 62
     2
 10
91.8216660300
 20
29.3301578355
  0
VERTEX
  8
0
 62
     2
 10
91.8341018984
 20
29.5522220847
  0
VERTEX
  8
0
 62
     2
 10
91.8164021315
 20
29.7757084337
  0
VERTEX
  8
0
 62
     2
 10
91.7708846199
 20
29.9974730876
  0
VERTEX
  8
0
 62
     2
 10
91.6998672651
 20
30.2143722367
  0
VERTEX
  8
0
 62
     2
 10
91.6056679579
 20
30.4232620639
  0
VERTEX
  8
0
 62
     2
 10
91.4906045960
 20
30.6209987593
  0
VERTEX
  8
0
 62
     2
 10
91.3569950776
 20
30.8044385281
  0
VERTEX
  8
0
 62
     2
 10
91.2071572969
 20
30.9704375532
  0
VERTEX
  8
0
 62
     2
 10
91.0115437972
 20
31.1418962744
  0
VERTEX
  8
0
 62
     2
 10
90.7993671129
 20
31.2886959878
  0
VERTEX
  8
0
 62
     2
 10
90.5736138949
 20
31.4151075226
  0
VERTEX
  8
0
 62
     2
 10
90.3372708054
 20
31.5254017231
  0
VERTEX
  8
0
 62
     2
 10
90.0933244953
 20
31.6238494110
  0
VERTEX
  8
0
 62
     2
 10
89.8447616192
 20
31.7147214231
  0
VERTEX
  8
0
 62
     2
 10
89.5945688317
 20
31.8022885886
  0
VERTEX
  8
0
 62
     2
 10
89.3457327875
 20
31.8908217442
  0
VERTEX
  8
0
 62
     2
 10
88.9598512778
 20
32.0397282806
  0
VERTEX
  8
0
 62
     2
 10
88.5817507262
 20
32.1979025346
  0
VERTEX
  8
0
 62
     2
 10
88.2083535919
 20
32.3615201455
  0
VERTEX
  8
0
 62
     2
 10
87.8365823271
 20
32.5267567676
  0
VERTEX
  8
0
 62
     2
 10
87.4633593837
 20
32.6897880477
  0
VERTEX
  8
0
 62
     2
 10
87.0856072212
 20
32.8467896250
  0
VERTEX
  8
0
 62
     2
 10
86.7002482878
 20
32.9939371464
  0
VERTEX
  8
0
 62
     2
 10
86.3042050431
 20
33.1274062660
  0
VERTEX
  8
0
 62
     2
 10
85.9670214595
 20
33.2244496909
  0
VERTEX
  8
0
 62
     2
 10
85.6233482527
 20
33.3053940949
  0
VERTEX
  8
0
 62
     2
 10
85.2761173936
 20
33.3661231664
  0
VERTEX
  8
0
 62
     2
 10
84.9282608682
 20
33.4025205564
  0
VERTEX
  8
0
 62
     2
 10
84.5827106515
 20
33.4104699534
  0
VERTEX
  8
0
 62
     2
 10
84.2423987182
 20
33.3858550158
  0
VERTEX
  8
0
 62
     2
 10
83.9102570469
 20
33.3245594171
  0
VERTEX
  8
0
 62
     2
 10
83.5892176198
 20
33.2224668381
  0
VERTEX
  8
0
 62
     2
 10
83.4899261872
 20
33.1808633995
  0
VERTEX
  8
0
 62
     2
 10
83.3921306523
 20
33.1350521561
  0
VERTEX
  8
0
 62
     2
 10
83.2959077375
 20
33.0853670728
  0
VERTEX
  8
0
 62
     2
 10
83.2013341615
 20
33.0321420920
  0
VERTEX
  8
0
 62
     2
 10
83.1084866466
 20
32.9757111710
  0
VERTEX
  8
0
 62
     2
 10
83.0174419152
 20
32.9164082524
  0
VERTEX
  8
0
 62
     2
 10
82.9282766858
 20
32.8545673084
  0
VERTEX
  8
0
 62
     2
 10
82.8410676846
 20
32.7905222666
  0
SEQEND
  8
0
 62
     2
  0
POLYLINE
  8
0
 62
     2
 66
     1
  0
VERTEX
  8
0
 62
     2
 10
82.8410676846
 20
32.7905222666
  0
VERTEX
  8
0
 62
     2
 10
83.0735546852
 20
32.1471323487
  0
VERTEX
  8
0
 62
     2
 10
83.2961332889
 20
31.5056693000
  0
VERTEX
  8
0
 62
     2
 10
83.5204896869
 20
30.8673278508
  0
VERTEX
  8
0
 62
     2
 10
83.7583100738
 20
30.2333027315
  0
VERTEX
  8
0
 62
     2
 10
84.0212806480
 20
29.6047886652
  0
VERTEX
  8
0
 62
     2
 10
84.3210876079
 20
28.9829803747
  0
VERTEX
  8
0
 62
     2
 10
84.6694171520
 20
28.3690726054
  0
VERTEX
  8
0
 62
     2
 10
85.0779554712
 20
27.7642600727
  0
VERTEX
  8
0
 62
     2
 10
85.4180049876
 20
27.3271483299
  0
VERTEX
  8
0
 62
     2
 10
85.7754035907
 20
26.8937859726
  0
VERTEX
  8
0
 62
     2
 10
86.1288937347
 20
26.4623968047
  0
VERTEX
  8
0
 62
     2
 10
86.4572178776
 20
26.0312046301
  0
VERTEX
  8
0
 62
     2
 10
86.7391184734
 20
25.5984332678
  0
VERTEX
  8
0
 62
     2
 10
86.9533379728
 20
25.1623065141
  0
VERTEX
  8
0
 62
     2
 10
87.0786188299
 20
24.7210481730
  0
VERTEX
  8
0
 62
     2
 10
87.0937035026
 20
24.2728820634
  0
VERTEX
  8
0
 62
     2
 10
87.0628251339
 20
24.0839535338
  0
VERTEX
  8
0
 62
     2
 10
87.0099833662
 20
23.8945369315
  0
VERTEX
  8
0
 62
     2
 10
86.9360180551
 20
23.7056505796
  0
VERTEX
  8
0
 62
     2
 10
86.8417690711
 20
23.5183128011
  0
VERTEX
  8
0
 62
     2
 10
86.7280762734
 20
23.3335419413
  0
VERTEX
  8
0
 62
     2
 10
86.5957795249
 20
23.1523563158
  0
VERTEX
  8
0
 62
     2
 10
86.4457186962
 20
22.9757742625
  0
VERTEX
  8
0
 62
     2
 10
86.2787336389
 20
22.8048141119
  0
VERTEX
  8
0
 62
     2
 10
86.0879951881
 20
22.6344536883
  0
VERTEX
  8
0
 62
     2
 10
85.8842259178
 20
22.4778199685
  0
VERTEX
  8
0
 62
     2
 10
85.6718986349
 20
22.3414135021
  0
VERTEX
  8
0
 62
     2
 10
85.4554861428
 20
22.2317348239
  0
VERTEX
  8
0
 62
     2
 10
85.2394612486
 20
22.1552844983
  0
VERTEX
  8
0
 62
     2
 10
85.0282967480
 20
22.1185630602
  0
VERTEX
  8
0
 62
     2
 10
84.8264654519
 20
22.1280710664
  0
VERTEX
  8
0
 62
     2
 10
84.6384401599
 20
22.1903090668
  0
VERTEX
  8
0
 62
     2
 10
84.5244943517
 20
22.2622203496
  0
VERTEX
  8
0
 62
     2
 10
84.4198137799
 20
22.3562338617
  0
VERTEX
  8
0
 62
     2
 10
84.3257593529
 20
22.4688386437
  0
VERTEX
  8
0
 62
     2
 10
84.2436919602
 20
22.5965237361
  0
VERTEX
  8
0
 62
     2
 10
84.1749724986
 20
22.7357781869
  0
VERTEX
  8
0
 62
     2
 10
84.1209618727
 20
22.8830910441
  0
VERTEX
  8
0
 62
     2
 10
84.0830209756
 20
23.0349513408
  0
VERTEX
  8
0
 62
     2
 10
84.0625107082
 20
23.1878481325
  0
VERTEX
  8
0
 62
     2
 10
84.0625059920
 20
23.3760746759
  0
VERTEX
  8
0
 62
     2
 10
84.0888094137
 20
23.5595601764
  0
VERTEX
  8
0
 62
     2
 10
84.1383674870
 20
23.7374299136
  0
VERTEX
  8
0
 62
     2
 10
84.2081267068
 20
23.9088091966
  0
VERTEX
  8
0
 62
     2
 10
84.2950335870
 20
24.0728233051
  0
VERTEX
  8
0
 62
     2
 10
84.3960346261
 20
24.2285975334
  0
VERTEX
  8
0
 62
     2
 10
84.5080763342
 20
24.3752571759
  0
VERTEX
  8
0
 62
     2
 10
84.5119049082
 20
24.3796165627
  0
SEQEND
  8
0
 62
     2
  0
POLYLINE
  8
0
 62
     2
 66
     1
  0
VERTEX
  8
0
 62
     2
 10
60.4681138301
 20
35.8340698597
  0
VERTEX
  8
0
 62
     2
 10
60.1309829669
 20
35.5539242071
  0
VERTEX
  8
0
 62
     2
 10
59.7773993405
 20
35.2798668709
  0
VERTEX
  8
0
 62
     2
 10
59.4103114436
 20
35.0180212450
  0
VERTEX
  8
0
 62
     2
 10
59.0326677801
 20
34.7745106783
  0
VERTEX
  8
0
 62
     2
 10
58.6474168429
 20
34.5554585573
  0
VERTEX
  8
0
 62
     2
 10
58.2575071285
 20
34.3669882533
  0
VERTEX
  8
0
 62
     2
 10
57.8658871332
 20
34.2152231228
  0
VERTEX
  8
0
 62
     2
 10
57.4755053574
 20
34.1062865522
  0
VERTEX
  8
0
 62
     2
 10
56.2879855016
 20
34.0615544063
  0
VERTEX
  8
0
 62
     2
 10
55.1291495728
 20
34.3974005473
  0
VERTEX
  8
0
 62
     2
 10
53.9874133894
 20
35.0235803839
  0
VERTEX
  8
0
 62
     2
 10
52.8511927704
 20
35.8498493251
  0
VERTEX
  8
0
 62
     2
 10
51.7089035416
 20
36.7859627870
  0
VERTEX
  8
0
 62
     2
 10
50.5489615182
 20
37.7416761634
  0
VERTEX
  8
0
 62
     2
 10
49.3597825187
 20
38.6267448705
  0
VERTEX
  8
0
 62
     2
 10
48.1297823729
 20
39.3509243098
  0
VERTEX
  8
0
 62
     2
 10
47.6247533800
 20
39.5764685687
  0
VERTEX
  8
0
 62
     2
 10
47.1124494465
 20
39.7646511090
  0
VERTEX
  8
0
 62
     2
 10
46.5939577798
 20
39.9181828019
  0
VERTEX
  8
0
 62
     2
 10
46.0703655871
 20
40.0397745487
  0
VERTEX
  8
0
 62
     2
 10
45.5427600758
 20
40.1321372357
  0
VERTEX
  8
0
 62
     2
 10
45.0122284571
 20
40.1979817417
  0
VERTEX
  8
0
 62
     2
 10
44.4798579345
 20
40.2400189605
  0
VERTEX
  8
0
 62
     2
 10
43.9467357191
 20
40.2609597859
  0
VERTEX
  8
0
 62
     2
 10
43.7536489273
 20
40.2635004413
  0
VERTEX
  8
0
 62
     2
 10
43.5607082712
 20
40.2615581345
  0
VERTEX
  8
0
 62
     2
 10
43.3680158684
 20
40.2530624610
  0
VERTEX
  8
0
 62
     2
 10
43.1756738255
 20
40.2359430459
  0
VERTEX
  8
0
 62
     2
 10
42.9837842601
 20
40.2081294846
  0
VERTEX
  8
0
 62
     2
 10
42.7924492786
 20
40.1675513875
  0
VERTEX
  8
0
 62
     2
 10
42.6017709987
 20
40.1121383649
  0
VERTEX
  8
0
 62
     2
 10
42.4118515233
 20
40.0398200270
  0
VERTEX
  8
0
 62
     2
 10
41.9904812368
 20
39.8161166203
  0
VERTEX
  8
0
 62
     2
 10
41.5747707987
 20
39.5328659829
  0
VERTEX
  8
0
 62
     2
 10
41.1660754474
 20
39.2253994536
  0
VERTEX
  8
0
 62
     2
 10
40.7657504099
 20
38.9290483859
  0
VERTEX
  8
0
 62
     2
 10
40.3751509318
 20
38.6791441482
  0
VERTEX
  8
0
 62
     2
 10
39.9956322404
 20
38.5110180718
  0
VERTEX
  8
0
 62
     2
 10
39.6285495738
 20
38.4600015250
  0
VERTEX
  8
0
 62
     2
 10
39.2752581703
 20
38.5614258465
  0
VERTEX
  8
0
 62
     2
 10
39.1335937360
 20
38.6554492158
  0
VERTEX
  8
0
 62
     2
 10
38.9985917749
 20
38.7769452375
  0
VERTEX
  8
0
 62
     2
 10
38.8743033091
 20
38.9210121003
  0
VERTEX
  8
0
 62
     2
 10
38.7647793459
 20
39.0827479777
  0
VERTEX
  8
0
 62
     2
 10
38.6740709076
 20
39.2572510582
  0
VERTEX
  8
0
 62
     2
 10
38.6062290052
 20
39.4396195230
  0
VERTEX
  8
0
 62
     2
 10
38.5653046573
 20
39.6249515456
  0
VERTEX
  8
0
 62
     2
 10
38.5553488786
 20
39.8083453220
  0
VERTEX
  8
0
 62
     2
 10
38.5690975206
 20
39.9369399366
  0
VERTEX
  8
0
 62
     2
 10
38.5991552713
 20
40.0619961512
  0
VERTEX
  8
0
 62
     2
 10
38.6436210813
 20
40.1835323986
  0
VERTEX
  8
0
 62
     2
 10
38.7005938905
 20
40.3015671191
  0
VERTEX
  8
0
 62
     2
 10
38.7681726532
 20
40.4161187452
  0
VERTEX
  8
0
 62
     2
 10
38.8444563056
 20
40.5272057173
  0
VERTEX
  8
0
 62
     2
 10
38.9275438057
 20
40.6348464605
  0
VERTEX
  8
0
 62
     2
 10
39.0155340897
 20
40.7390594226
  0
VERTEX
  8
0
 62
     2
 10
39.2487724925
 20
40.9841675949
  0
VERTEX
  8
0
 62
     2
 10
39.4989862533
 20
41.2071967986
  0
VERTEX
  8
0
 62
     2
 10
39.7644475380
 20
41.4073110413
  0
VERTEX
  8
0
 62
     2
 10
40.0434285121
 20
41.5836743307
  0
VERTEX
  8
0
 62
     2
 10
40.3342013451
 20
41.7354506817
  0
VERTEX
  8
0
 62
     2
 10
40.6350381987
 20
41.8618040946
  0
VERTEX
  8
0
 62
     2
 10
40.6358501742
 20
41.8620669734
  0
SEQEND
  8
0
 62
     2
  0
POLYLINE
  8
0
 62
     2
 66
     1
  0
VERTEX
  8
0
 62
     2
 10
84.5461016091
 20
24.6677611065
  0
VERTEX
  8
0
 62
     2
 10
84.1746403368
 20
25.3736586761
  0
VERTEX
  8
0
 62
     2
 10
83.6842859181
 20
26.2089383122
  0
VERTEX
  8
0
 62
     2
 10
83.1574877555
 20
27.0204131272
  0
VERTEX
  8
0
 62
     2
 10
82.5946916620
 20
27.8107298356
  0
VERTEX
  8
0
 62
     2
 10
81.9963434430
 20
28.5825351444
  0
VERTEX
  8
0
 62
     2
 10
81.3628889041
 20
29.3384757754
  0
VERTEX
  8
0
 62
     2
 10
80.6947738508
 20
30.0811984357
  0
VERTEX
  8
0
 62
     2
 10
79.9924440922
 20
30.8133498323
  0
VERTEX
  8
0
 62
     2
 10
79.0388802568
 20
31.7397313309
  0
VERTEX
  8
0
 62
     2
 10
78.0339323374
 20
32.6273363721
  0
VERTEX
  8
0
 62
     2
 10
76.9822233150
 20
33.4505316806
  0
VERTEX
  8
0
 62
     2
 10
75.8883761818
 20
34.1836840030
  0
VERTEX
  8
0
 62
     2
 10
74.7570139187
 20
34.8011600566
  0
VERTEX
  8
0
 62
     2
 10
73.5927595178
 20
35.2773265657
  0
VERTEX
  8
0
 62
     2
 10
72.4002359601
 20
35.5865502697
  0
VERTEX
  8
0
 62
     2
 10
71.1840662340
 20
35.7031978932
  0
VERTEX
  8
0
 62
     2
 10
70.2677587660
 20
35.6572379139
  0
VERTEX
  8
0
 62
     2
 10
69.3433211612
 20
35.5238632080
  0
VERTEX
  8
0
 62
     2
 10
68.4131295474
 20
35.3361732852
  0
VERTEX
  8
0
 62
     2
 10
67.4795600416
 20
35.1272676852
  0
VERTEX
  8
0
 62
     2
 10
66.5449887792
 20
34.9302459326
  0
VERTEX
  8
0
 62
     2
 10
65.6117918769
 20
34.7782075372
  0
VERTEX
  8
0
 62
     2
 10
64.6823454665
 20
34.7042520386
  0
VERTEX
  8
0
 62
     2
 10
63.7590256648
 20
34.7414789465
  0
VERTEX
  8
0
 62
     2
 10
63.3342109228
 20
34.8044986096
  0
VERTEX
  8
0
 62
     2
 10
62.9118930752
 20
34.8951554415
  0
VERTEX
  8
0
 62
     2
 10
62.4927452186
 20
35.0101385903
  0
VERTEX
  8
0
 62
     2
 10
62.0774404349
 20
35.1461372268
  0
VERTEX
  8
0
 62
     2
 10
61.6666518131
 20
35.2998405066
  0
VERTEX
  8
0
 62
     2
 10
61.2610524500
 20
35.4679376003
  0
VERTEX
  8
0
 62
     2
 10
60.8613154235
 20
35.6471176636
  0
VERTEX
  8
0
 62
     2
 10
60.4681138301
 20
35.8340698597
  0
SEQEND
  8
0
 62
     2
  0
LINE
  8
0
 62
     2
 10
59.4486729743
 20
82.3707719561
 11
59.7366326617
 21
82.6587316361
  0
POLYLINE
  8
0
 62
     2
 66
     1
  0
VERTEX
  8
0
 62
     2
 10
59.7366326617
 20
82.6587316361
  0
VERTEX
  8
0
 62
     2
 10
59.8445559086
 20
82.6817637649
  0
VERTEX
  8
0
 62
     2
 10
59.9566788579
 20
82.7006687489
  0
VERTEX
  8
0
 62
     2
 10
60.0709106418
 20
82.7142198574
  0
VERTEX
  8
0
 62
     2
 10
60.1851603927
 20
82.7211903524
  0
VERTEX
  8
0
 62
     2
 10
60.2973372506
 20
82.7203535107
  0
VERTEX
  8
0
 62
     2
 10
60.4053503478
 20
82.7104825941
  0
VERTEX
  8
0
 62
     2
 10
60.5071088167
 20
82.6903508794
  0
VERTEX
  8
0
 62
     2
 10
60.6005217934
 20
82.6587316361
  0
VERTEX
  8
0
 62
     2
 10
60.7811562548
 20
82.5362531733
  0
VERTEX
  8
0
 62
     2
 10
60.9093621800
 20
82.3543521133
  0
VERTEX
  8
0
 62
     2
 10
60.9906912351
 20
82.1242411774
  0
VERTEX
  8
0
 62
     2
 10
61.0306950750
 20
81.8571330947
  0
VERTEX
  8
0
 62
     2
 10
61.0349253694
 20
81.5642405790
  0
VERTEX
  8
0
 62
     2
 10
61.0089337694
 20
81.2567763445
  0
VERTEX
  8
0
 62
     2
 10
60.9582719485
 20
80.9459531125
  0
VERTEX
  8
0
 62
     2
 10
60.8884915577
 20
80.6429836047
  0
VERTEX
  8
0
 62
     2
 10
60.7545443045
 20
80.2127690878
  0
VERTEX
  8
0
 62
     2
 10
60.5916206258
 20
79.8224177700
  0
VERTEX
  8
0
 62
     2
 10
60.4024906883
 20
79.4671773133
  0
VERTEX
  8
0
 62
     2
 10
60.1899246665
 20
79.1422953871
  0
VERTEX
  8
0
 62
     2
 10
59.9566927346
 20
78.8430196387
  0
VERTEX
  8
0
 62
     2
 10
59.7055650668
 20
78.5645977449
  0
VERTEX
  8
0
 62
     2
 10
59.4393118339
 20
78.3022773531
  0
VERTEX
  8
0
 62
     2
 10
59.1607032100
 20
78.0513061252
  0
VERTEX
  8
0
 62
     2
 10
58.6253740953
 20
77.6077473354
  0
VERTEX
  8
0
 62
     2
 10
58.0680877658
 20
77.1766763595
  0
VERTEX
  8
0
 62
     2
 10
57.4991652796
 20
76.7483661365
  0
VERTEX
  8
0
 62
     2
 10
56.9289276878
 20
76.3130896282
  0
VERTEX
  8
0
 62
     2
 10
56.3676960560
 20
75.8611197886
  0
VERTEX
  8
0
 62
     2
 10
55.8257914351
 20
75.3827295718
  0
VERTEX
  8
0
 62
     2
 10
55.3135348836
 20
74.8681919318
  0
VERTEX
  8
0
 62
     2
 10
54.8412474634
 20
74.3077798304
  0
VERTEX
  8
0
 62
     2
 10
54.7416891957
 20
74.1741989744
  0
VERTEX
  8
0
 62
     2
 10
54.6464582475
 20
74.0377458823
  0
VERTEX
  8
0
 62
     2
 10
54.5573291125
 20
73.8983707395
  0
VERTEX
  8
0
 62
     2
 10
54.4760762880
 20
73.7560237315
  0
VERTEX
  8
0
 62
     2
 10
54.4044742676
 20
73.6106550586
  0
VERTEX
  8
0
 62
     2
 10
54.3442975523
 20
73.4622149062
  0
VERTEX
  8
0
 62
     2
 10
54.2973206358
 20
73.3106534672
  0
VERTEX
  8
0
 62
     2
 10
54.2653180154
 20
73.1559209269
  0
VERTEX
  8
0
 62
     2
 10
54.2941415886
 20
72.5183221665
  0
VERTEX
  8
0
 62
     2
 10
54.5395309868
 20
71.8667047512
  0
VERTEX
  8
0
 62
     2
 10
54.9559345076
 20
71.2374570113
  0
VERTEX
  8
0
 62
     2
 10
55.4978004450
 20
70.6669672546
  0
VERTEX
  8
0
 62
     2
 10
56.1195771041
 20
70.1916237962
  0
VERTEX
  8
0
 62
     2
 10
56.7757127824
 20
69.8478149441
  0
VERTEX
  8
0
 62
     2
 10
57.4206557775
 20
69.6719290134
  0
VERTEX
  8
0
 62
     2
 10
58.0088543909
 20
69.7003543121
  0
VERTEX
  8
0
 62
     2
 10
58.2800268436
 20
69.8055335995
  0
VERTEX
  8
0
 62
     2
 10
58.5308502669
 20
69.9648419064
  0
VERTEX
  8
0
 62
     2
 10
58.7687557543
 20
70.1670424682
  0
VERTEX
  8
0
 62
     2
 10
59.0011744032
 20
70.4008985352
  0
VERTEX
  8
0
 62
     2
 10
59.2355372997
 20
70.6551733431
  0
VERTEX
  8
0
 62
     2
 10
59.4792755375
 20
70.9186301422
  0
VERTEX
  8
0
 62
     2
 10
59.7398202175
 20
71.1800321680
  0
VERTEX
  8
0
 62
     2
 10
60.0246024223
 20
71.4281426635
  0
VERTEX
  8
0
 62
     2
 10
60.3731553422
 20
71.6749773812
  0
VERTEX
  8
0
 62
     2
 10
60.7486256639
 20
71.8851529401
  0
VERTEX
  8
0
 62
     2
 10
61.1391835118
 20
72.0520210829
  0
VERTEX
  8
0
 62
     2
 10
61.5329989920
 20
72.1689335671
  0
VERTEX
  8
0
 62
     2
 10
61.9182422253
 20
72.2292421502
  0
VERTEX
  8
0
 62
     2
 10
62.2830833251
 20
72.2262985822
  0
VERTEX
  8
0
 62
     2
 10
62.6156924086
 20
72.1534546283
  0
VERTEX
  8
0
 62
     2
 10
62.9042395892
 20
72.0040620309
  0
VERTEX
  8
0
 62
     2
 10
63.0653661730
 20
71.8619861495
  0
VERTEX
  8
0
 62
     2
 10
63.2053091878
 20
71.6888735038
  0
VERTEX
  8
0
 62
     2
 10
63.3270689266
 20
71.4896858451
  0
VERTEX
  8
0
 62
     2
 10
63.4336456860
 20
71.2693849322
  0
VERTEX
  8
0
 62
     2
 10
63.5280397514
 20
71.0329325092
  0
VERTEX
  8
0
 62
     2
 10
63.6132514196
 20
70.7852903348
  0
VERTEX
  8
0
 62
     2
 10
63.6922809797
 20
70.5314201680
  0
VERTEX
  8
0
 62
     2
 10
63.9891272987
 20
69.5327194524
  0
VERTEX
  8
0
 62
     2
 10
64.1914282086
 20
68.8133621481
  0
VERTEX
  8
0
 62
     2
 10
64.3579513820
 20
68.1094874558
  0
VERTEX
  8
0
 62
     2
 10
64.4716167430
 20
67.4123709765
  0
VERTEX
  8
0
 62
     2
 10
64.5153442079
 20
66.7132883263
  0
VERTEX
  8
0
 62
     2
 10
64.4720537046
 20
66.0035150987
  0
VERTEX
  8
0
 62
     2
 10
64.3246651570
 20
65.2743269098
  0
VERTEX
  8
0
 62
     2
 10
64.0560984852
 20
64.5169993532
  0
VERTEX
  8
0
 62
     2
 10
63.9089816528
 20
64.1958919582
  0
VERTEX
  8
0
 62
     2
 10
63.7533895353
 20
63.8737736684
  0
VERTEX
  8
0
 62
     2
 10
63.6042920070
 20
63.5558847901
  0
VERTEX
  8
0
 62
     2
 10
63.4766589495
 20
63.2474655998
  0
VERTEX
  8
0
 62
     2
 10
63.3854602443
 20
62.9537563962
  0
VERTEX
  8
0
 62
     2
 10
63.3456657732
 20
62.6799974781
  0
VERTEX
  8
0
 62
     2
 10
63.3722454103
 20
62.4314291295
  0
VERTEX
  8
0
 62
     2
 10
63.4801690372
 20
62.2132916418
  0
VERTEX
  8
0
 62
     2
 10
63.5560160706
 20
62.1285633486
  0
VERTEX
  8
0
 62
     2
 10
63.6471992674
 20
62.0495944363
  0
VERTEX
  8
0
 62
     2
 10
63.7506418506
 20
61.9753248063
  0
VERTEX
  8
0
 62
     2
 10
63.8632670360
 20
61.9046943453
  0
VERTEX
  8
0
 62
     2
 10
63.9819980430
 20
61.8366429624
  0
VERTEX
  8
0
 62
     2
 10
64.1037580872
 20
61.7701105443
  0
VERTEX
  8
0
 62
     2
 10
64.2254703919
 20
61.7040369850
  0
VERTEX
  8
0
 62
     2
 10
64.3440581726
 20
61.6373621863
  0
VERTEX
  8
0
 62
     2
 10
64.7374210114
 20
61.3743149829
  0
VERTEX
  8
0
 62
     2
 10
65.0666130426
 20
61.0866177794
  0
VERTEX
  8
0
 62
     2
 10
65.3538049327
 20
60.7727516484
  0
VERTEX
  8
0
 62
     2
 10
65.6211673485
 20
60.4311976847
  0
VERTEX
  8
0
 62
     2
 10
65.8908709603
 20
60.0604369533
  0
VERTEX
  8
0
 62
     2
 10
66.1850864383
 20
59.6589505491
  0
VERTEX
  8
0
 62
     2
 10
66.5259844454
 20
59.2252195445
  0
VERTEX
  8
0
 62
     2
 10
66.9357356521
 20
58.7577250269
  0
VERTEX
  8
0
 62
     2
 10
67.2357815447
 20
58.4438760322
  0
VERTEX
  8
0
 62
     2
 10
67.5420103239
 20
58.1230055508
  0
VERTEX
  8
0
 62
     2
 10
67.8238934407
 20
57.8023220715
  0
VERTEX
  8
0
 62
     2
 10
68.2430332842
 20
57.2238801163
  0
SEQEND
  8
0
 62
     2
  0
POLYLINE
  8
0
 62
     2
 66
     1
  0
VERTEX
  8
0
 62
     2
 10
22.7652366067
 20
53.5674704727
  0
VERTEX
  8
0
 62
     2
 10
23.5622924732
 20
53.5362165835
  0
VERTEX
  8
0
 62
     2
 10
24.5308430622
 20
53.5432361555
  0
VERTEX
  8
0
 62
     2
 10
25.4969999472
 20
53.5937193376
  0
VERTEX
  8
0
 62
     2
 10
26.4628323408
 20
53.6859566909
  0
VERTEX
  8
0
 62
     2
 10
27.4304094592
 20
53.8182387990
  0
VERTEX
  8
0
 62
     2
 10
28.4018005187
 20
53.9888562006
  0
VERTEX
  8
0
 62
     2
 10
29.3790747317
 20
54.1960994792
  0
VERTEX
  8
0
 62
     2
 10
30.3643013219
 20
54.4382591960
  0
VERTEX
  8
0
 62
     2
 10
31.6433531473
 20
54.8008789536
  0
VERTEX
  8
0
 62
     2
 10
32.9145156237
 20
55.2273868662
  0
VERTEX
  8
0
 62
     2
 10
34.1532781886
 20
55.7265959349
  0
VERTEX
  8
0
 62
     2
 10
35.3351302872
 20
56.3073191833
  0
VERTEX
  8
0
 62
     2
 10
36.4355613681
 20
56.9783696127
  0
VERTEX
  8
0
 62
     2
 10
37.4300608652
 20
57.7485602465
  0
VERTEX
  8
0
 62
     2
 10
38.2941182273
 20
58.6267040935
  0
VERTEX
  8
0
 62
     2
 10
39.0032228956
 20
59.6216141549
  0
VERTEX
  8
0
 62
     2
 10
39.4215741174
 20
60.4381396887
  0
VERTEX
  8
0
 62
     2
 10
39.7682870308
 20
61.3054134962
  0
VERTEX
  8
0
 62
     2
 10
40.0708386021
 20
62.2048280281
  0
VERTEX
  8
0
 62
     2
 10
40.3567057977
 20
63.1177757275
  0
VERTEX
  8
0
 62
     2
 10
40.6533655839
 20
64.0256490675
  0
VERTEX
  8
0
 62
     2
 10
40.9882949272
 20
64.9098404837
  0
VERTEX
  8
0
 62
     2
 10
41.3889707903
 20
65.7517424416
  0
VERTEX
  8
0
 62
     2
 10
41.8828701394
 20
66.5327473846
  0
VERTEX
  8
0
 62
     2
 10
42.1498541402
 20
66.8691379172
  0
VERTEX
  8
0
 62
     2
 10
42.4395241792
 20
67.1895474833
  0
VERTEX
  8
0
 62
     2
 10
42.7486764359
 20
67.4950486016
  0
VERTEX
  8
0
 62
     2
 10
43.0741071010
 20
67.7867137757
  0
VERTEX
  8
0
 62
     2
 10
43.4126123617
 20
68.0656155166
  0
VERTEX
  8
0
 62
     2
 10
43.7609883936
 20
68.3328263280
  0
VERTEX
  8
0
 62
     2
 10
44.1160313951
 20
68.5894187134
  0
VERTEX
  8
0
 62
     2
 10
44.4745375419
 20
68.8364651841
  0
SEQEND
  8
0
 62
     2
  0
POLYLINE
  8
0
 62
     2
 66
     1
  0
VERTEX
  8
0
 62
     2
 10
44.4728549028
 20
68.8462826502
  0
VERTEX
  8
0
 62
     2
 10
44.4004897194
 20
69.2685019043
  0
VERTEX
  8
0
 62
     2
 10
44.3399409222
 20
69.7117429715
  0
VERTEX
  8
0
 62
     2
 10
44.2967199030
 20
70.1605732259
  0
VERTEX
  8
0
 62
     2
 10
44.2746554034
 20
70.6093775150
  0
VERTEX
  8
0
 62
     2
 10
44.2775761688
 20
71.0525406790
  0
VERTEX
  8
0
 62
     2
 10
44.3093109520
 20
71.4844475505
  0
VERTEX
  8
0
 62
     2
 10
44.3736884946
 20
71.8994829771
  0
VERTEX
  8
0
 62
     2
 10
44.4745375419
 20
72.2920317990
  0
VERTEX
  8
0
 62
     2
 10
45.0295582915
 20
73.3428202313
  0
VERTEX
  8
0
 62
     2
 10
45.8998275491
 20
74.1784785134
  0
VERTEX
  8
0
 62
     2
 10
47.0129832866
 20
74.8541611400
  0
VERTEX
  8
0
 62
     2
 10
48.2966634909
 20
75.4250225839
  0
VERTEX
  8
0
 62
     2
 10
49.6785061414
 20
75.9462173474
  0
VERTEX
  8
0
 62
     2
 10
51.0861492174
 20
76.4728999180
  0
VERTEX
  8
0
 62
     2
 10
52.4472306984
 20
77.0602247831
  0
VERTEX
  8
0
 62
     2
 10
53.6893885674
 20
77.7633464378
  0
VERTEX
  8
0
 62
     2
 10
54.1372301223
 20
78.0879422468
  0
VERTEX
  8
0
 62
     2
 10
54.5563529449
 20
78.4375191969
  0
VERTEX
  8
0
 62
     2
 10
54.9485611299
 20
78.8097803038
  0
VERTEX
  8
0
 62
     2
 10
55.3156587685
 20
79.2024285686
  0
VERTEX
  8
0
 62
     2
 10
55.6594499516
 20
79.6131670070
  0
VERTEX
  8
0
 62
     2
 10
55.9817387777
 20
80.0396986124
  0
VERTEX
  8
0
 62
     2
 10
56.2843293416
 20
80.4797264007
  0
VERTEX
  8
0
 62
     2
 10
56.5690257305
 20
80.9309533727
  0
VERTEX
  8
0
 62
     2
 10
56.6677694002
 20
81.0969011080
  0
VERTEX
  8
0
 62
     2
 10
56.7625576386
 20
81.2649637726
  0
VERTEX
  8
0
 62
     2
 10
56.8515463786
 20
81.4360881191
  0
VERTEX
  8
0
 62
     2
 10
56.9328915457
 20
81.6112209228
  0
VERTEX
  8
0
 62
     2
 10
57.0047490800
 20
81.7913089436
  0
VERTEX
  8
0
 62
     2
 10
57.0652749071
 20
81.9772989494
  0
VERTEX
  8
0
 62
     2
 10
57.1126249636
 20
82.1701376927
  0
VERTEX
  8
0
 62
     2
 10
57.1449551786
 20
82.3707719561
  0
VERTEX
  8
0
 62
     2
 10
57.1619074920
 20
82.8475410309
  0
VERTEX
  8
0
 62
     2
 10
57.1244604605
 20
83.3491821480
  0
VERTEX
  8
0
 62
     2
 10
57.0625343153
 20
83.8568559703
  0
VERTEX
  8
0
 62
     2
 10
57.0060492808
 20
84.3517231536
  0
VERTEX
  8
0
 62
     2
 10
56.9849255996
 20
84.8149443459
  0
VERTEX
  8
0
 62
     2
 10
57.0290834921
 20
85.2276802105
  0
VERTEX
  8
0
 62
     2
 10
57.1684431972
 20
85.5710914028
  0
VERTEX
  8
0
 62
     2
 10
57.4329249429
 20
85.8263385636
  0
VERTEX
  8
0
 62
     2
 10
57.5851837861
 20
85.9020118830
  0
VERTEX
  8
0
 62
     2
 10
57.7579034062
 20
85.9581790012
  0
VERTEX
  8
0
 62
     2
 10
57.9448132010
 20
85.9937825394
  0
VERTEX
  8
0
 62
     2
 10
58.1396425644
 20
86.0077651334
  0
VERTEX
  8
0
 62
     2
 10
58.3361208828
 20
85.9990694043
  0
VERTEX
  8
0
 62
     2
 10
58.5279775577
 20
85.9666379806
  0
VERTEX
  8
0
 62
     2
 10
58.7089419717
 20
85.9094134909
  0
VERTEX
  8
0
 62
     2
 10
58.8727435263
 20
85.8263385636
  0
VERTEX
  8
0
 62
     2
 10
58.9772354083
 20
85.7501345840
  0
VERTEX
  8
0
 62
     2
 10
59.0705083924
 20
85.6615757015
  0
VERTEX
  8
0
 62
     2
 10
59.1535289677
 20
85.5622990620
  0
VERTEX
  8
0
 62
     2
 10
59.2272636311
 20
85.4539417964
  0
VERTEX
  8
0
 62
     2
 10
59.2926788682
 20
85.3381410581
  0
VERTEX
  8
0
 62
     2
 10
59.3507411795
 20
85.2165339929
  0
VERTEX
  8
0
 62
     2
 10
59.4024170505
 20
85.0907577318
  0
VERTEX
  8
0
 62
     2
 10
59.4486729743
 20
84.9624494356
  0
VERTEX
  8
0
 62
     2
 10
59.5443236845
 20
84.6379049611
  0
VERTEX
  8
0
 62
     2
 10
59.6123657616
 20
84.3096988913
  0
VERTEX
  8
0
 62
     2
 10
59.6529391350
 20
83.9797455487
  0
VERTEX
  8
0
 62
     2
 10
59.6661837379
 20
83.6499592927
  0
VERTEX
  8
0
 62
     2
 10
59.6522394920
 20
83.3222544607
  0
VERTEX
  8
0
 62
     2
 10
59.6112463342
 20
82.9985453975
  0
VERTEX
  8
0
 62
     2
 10
59.5433441827
 20
82.6807464477
  0
VERTEX
  8
0
 62
     2
 10
59.4486729743
 20
82.3707719561
  0
SEQEND
  8
0
 62
     2
  0
POLYLINE
  8
0
 62
     2
 66
     1
  0
VERTEX
  8
0
 62
     2
 10
30.6522710862
 20
50.9826925811
  0
VERTEX
  8
0
 62
     2
 10
29.9788355695
 20
51.1030478892
  0
VERTEX
  8
0
 62
     2
 10
29.3120229708
 20
51.2310206932
  0
VERTEX
  8
0
 62
     2
 10
28.6470248604
 20
51.3558930796
  0
VERTEX
  8
0
 62
     2
 10
27.9790328050
 20
51.4669471425
  0
VERTEX
  8
0
 62
     2
 10
27.3032383675
 20
51.5534649756
  0
VERTEX
  8
0
 62
     2
 10
26.6148331182
 20
51.6047286731
  0
VERTEX
  8
0
 62
     2
 10
25.9090086201
 20
51.6100203288
  0
VERTEX
  8
0
 62
     2
 10
25.1809564399
 20
51.5586220291
  0
VERTEX
  8
0
 62
     2
 10
24.6323818134
 20
51.4826863822
  0
VERTEX
  8
0
 62
     2
 10
24.0783796998
 20
51.3898512912
  0
VERTEX
  8
0
 62
     2
 10
23.5280406492
 20
51.2994144303
  0
VERTEX
  8
0
 62
     2
 10
22.9904552007
 20
51.2306734663
  0
VERTEX
  8
0
 62
     2
 10
22.4747139083
 20
51.2029260737
  0
VERTEX
  8
0
 62
     2
 10
21.9899073074
 20
51.2354699266
  0
VERTEX
  8
0
 62
     2
 10
21.5451259481
 20
51.3476026845
  0
VERTEX
  8
0
 62
     2
 10
21.1494603770
 20
51.5586220291
  0
VERTEX
  8
0
 62
     2
 10
21.0012826564
 20
51.6798277464
  0
VERTEX
  8
0
 62
     2
 10
20.8636639470
 20
51.8202983630
  0
VERTEX
  8
0
 62
     2
 10
20.7370662222
 20
51.9787973803
  0
VERTEX
  8
0
 62
     2
 10
20.6219514439
 20
52.1540882778
  0
VERTEX
  8
0
 62
     2
 10
20.5187815817
 20
52.3449345645
  0
VERTEX
  8
0
 62
     2
 10
20.4280186052
 20
52.5500997198
  0
VERTEX
  8
0
 62
     2
 10
20.3501244763
 20
52.7683472377
  0
VERTEX
  8
0
 62
     2
 10
20.2855611647
 20
52.9984406125
  0
VERTEX
  8
0
 62
     2
 10
20.2333939390
 20
53.2488051695
  0
VERTEX
  8
0
 62
     2
 10
20.1996297928
 20
53.5035913926
  0
VERTEX
  8
0
 62
     2
 10
20.1876619661
 20
53.7556754467
  0
VERTEX
  8
0
 62
     2
 10
20.2008836957
 20
53.9979335037
  0
VERTEX
  8
0
 62
     2
 10
20.2426882142
 20
54.2232417133
  0
VERTEX
  8
0
 62
     2
 10
20.3164687695
 20
54.4244762552
  0
VERTEX
  8
0
 62
     2
 10
20.4256185943
 20
54.5945132789
  0
VERTEX
  8
0
 62
     2
 10
20.5735309290
 20
54.7262289640
  0
VERTEX
  8
0
 62
     2
 10
20.6927808317
 20
54.7889532861
  0
VERTEX
  8
0
 62
     2
 10
20.8265392052
 20
54.8326025572
  0
VERTEX
  8
0
 62
     2
 10
20.9710850174
 20
54.8577536982
  0
VERTEX
  8
0
 62
     2
 10
21.1226972508
 20
54.8649835926
  0
VERTEX
  8
0
 62
     2
 10
21.2776548730
 20
54.8548691687
  0
VERTEX
  8
0
 62
     2
 10
21.4322368631
 20
54.8279873174
  0
VERTEX
  8
0
 62
     2
 10
21.5827221887
 20
54.7849149448
  0
VERTEX
  8
0
 62
     2
 10
21.7253898250
 20
54.7262289640
  0
VERTEX
  8
0
 62
     2
 10
21.8884011524
 20
54.6321197790
  0
VERTEX
  8
0
 62
     2
 10
22.0341525430
 20
54.5175975901
  0
VERTEX
  8
0
 62
     2
 10
22.1634132246
 20
54.3857441735
  0
VERTEX
  8
0
 62
     2
 10
22.2769524211
 20
54.2396412757
  0
VERTEX
  8
0
 62
     2
 10
22.3755393679
 20
54.0823706579
  0
VERTEX
  8
0
 62
     2
 10
22.4599432888
 20
53.9170140740
  0
VERTEX
  8
0
 62
     2
 10
22.5309334079
 20
53.7466532928
  0
VERTEX
  8
0
 62
     2
 10
22.5327944624
 20
53.7411579531
  0
SEQEND
  8
0
 62
     2
  0
POLYLINE
  8
0
 62
     2
 66
     1
  0
VERTEX
  8
0
 62
     2
 10
19.0925417857
 20
46.2871081647
  0
VERTEX
  8
0
 62
     2
 10
19.4014687555
 20
46.4408794460
  0
VERTEX
  8
0
 62
     2
 10
19.7360364253
 20
46.5814958480
  0
VERTEX
  8
0
 62
     2
 10
20.0863071585
 20
46.7002840680
  0
VERTEX
  8
0
 62
     2
 10
20.4423433298
 20
46.7885708105
  0
VERTEX
  8
0
 62
     2
 10
20.7942073139
 20
46.8376827654
  0
VERTEX
  8
0
 62
     2
 10
21.1319614740
 20
46.8389466223
  0
VERTEX
  8
0
 62
     2
 10
21.4456681887
 20
46.7836890784
  0
VERTEX
  8
0
 62
     2
 10
21.7253898250
 20
46.6632368383
  0
VERTEX
  8
0
 62
     2
 10
21.9304078872
 20
46.5069406447
  0
VERTEX
  8
0
 62
     2
 10
22.1121009978
 20
46.3097443771
  0
VERTEX
  8
0
 62
     2
 10
22.2785543816
 20
46.0835727346
  0
VERTEX
  8
0
 62
     2
 10
22.4378532710
 20
45.8403504234
  0
VERTEX
  8
0
 62
     2
 10
22.5980828943
 20
45.5920021352
  0
VERTEX
  8
0
 62
     2
 10
22.7673284726
 20
45.3504525837
  0
VERTEX
  8
0
 62
     2
 10
22.9536752345
 20
45.1276264679
  0
VERTEX
  8
0
 62
     2
 10
23.1652084084
 20
44.9354484868
  0
VERTEX
  8
0
 62
     2
 10
23.3513037505
 20
44.8136465889
  0
VERTEX
  8
0
 62
     2
 10
23.5536984930
 20
44.7172318590
  0
VERTEX
  8
0
 62
     2
 10
23.7685110698
 20
44.6457688552
  0
VERTEX
  8
0
 62
     2
 10
23.9918599183
 20
44.5988221136
  0
VERTEX
  8
0
 62
     2
 10
24.2198634686
 20
44.5759561923
  0
VERTEX
  8
0
 62
     2
 10
24.4486401545
 20
44.5767356348
  0
VERTEX
  8
0
 62
     2
 10
24.6743084135
 20
44.6007249919
  0
VERTEX
  8
0
 62
     2
 10
24.8929866756
 20
44.6474888068
  0
VERTEX
  8
0
 62
     2
 10
25.1392810362
 20
44.7311657038
  0
VERTEX
  8
0
 62
     2
 10
25.3725016581
 20
44.8415162456
  0
VERTEX
  8
0
 62
     2
 10
25.5948538685
 20
44.9738185000
  0
VERTEX
  8
0
 62
     2
 10
25.8085429909
 20
45.1233505201
  0
VERTEX
  8
0
 62
     2
 10
26.0157743449
 20
45.2853903812
  0
VERTEX
  8
0
 62
     2
 10
26.2187532539
 20
45.4552161363
  0
VERTEX
  8
0
 62
     2
 10
26.4196850376
 20
45.6281058606
  0
VERTEX
  8
0
 62
     2
 10
26.6207750233
 20
45.7993376222
  0
VERTEX
  8
0
 62
     2
 10
26.9426726232
 20
46.0590675440
  0
VERTEX
  8
0
 62
     2
 10
27.2687058168
 20
46.3074251008
  0
VERTEX
  8
0
 62
     2
 10
27.5971013958
 20
46.5489876982
  0
VERTEX
  8
0
 62
     2
 10
27.9260861406
 20
46.7883327496
  0
VERTEX
  8
0
 62
     2
 10
28.2538868355
 20
47.0300376606
  0
VERTEX
  8
0
 62
     2
 10
28.5787302720
 20
47.2786798370
  0
VERTEX
  8
0
 62
     2
 10
28.8988432342
 20
47.5388366994
  0
VERTEX
  8
0
 62
     2
 10
29.2124525028
 20
47.8150856537
  0
VERTEX
  8
0
 62
     2
 10
29.4650863650
 20
48.0585734886
  0
VERTEX
  8
0
 62
     2
 10
29.7070228847
 20
48.3157310155
  0
VERTEX
  8
0
 62
     2
 10
29.9332312251
 20
48.5860772249
  0
VERTEX
  8
0
 62
     2
 10
30.1386805566
 20
48.8691311148
  0
VERTEX
  8
0
 62
     2
 10
30.3183400424
 20
49.1644116905
  0
VERTEX
  8
0
 62
     2
 10
30.4671788456
 20
49.4714379352
  0
VERTEX
  8
0
 62
     2
 10
30.5801661404
 20
49.7897288543
  0
VERTEX
  8
0
 62
     2
 10
30.6522710862
 20
50.1188034457
  0
VERTEX
  8
0
 62
     2
 10
30.6658871675
 20
50.2255940702
  0
VERTEX
  8
0
 62
     2
 10
30.6751112359
 20
50.3331931126
  0
VERTEX
  8
0
 62
     2
 10
30.6801941486
 20
50.4413671386
  0
VERTEX
  8
0
 62
     2
 10
30.6813867482
 20
50.5498827514
  0
VERTEX
  8
0
 62
     2
 10
30.6789398918
 20
50.6585065168
  0
VERTEX
  8
0
 62
     2
 10
30.6731044295
 20
50.7670050231
  0
VERTEX
  8
0
 62
     2
 10
30.6641312110
 20
50.8751448509
  0
VERTEX
  8
0
 62
     2
 10
30.6522710862
 20
50.9826925811
  0
SEQEND
  8
0
 62
     2
  0
POLYLINE
  8
0
 62
     2
 66
     1
  0
VERTEX
  8
0
 62
     2
 10
19.9776375497
 20
43.2076702234
  0
VERTEX
  8
0
 62
     2
 10
20.2657568732
 20
43.2526134890
  0
VERTEX
  8
0
 62
     2
 10
20.5568621325
 20
43.2877731961
  0
VERTEX
  8
0
 62
     2
 10
20.8497945944
 20
43.3116206494
  0
VERTEX
  8
0
 62
     2
 10
21.1433955224
 20
43.3226271760
  0
VERTEX
  8
0
 62
     2
 10
21.4365061799
 20
43.3192640808
  0
VERTEX
  8
0
 62
     2
 10
21.7279678339
 20
43.3000026759
  0
VERTEX
  8
0
 62
     2
 10
22.0166217515
 20
43.2633142885
  0
VERTEX
  8
0
 62
     2
 10
22.3013091961
 20
43.2076702234
  0
VERTEX
  8
0
 62
     2
 10
22.5211242492
 20
43.1504030418
  0
VERTEX
  8
0
 62
     2
 10
22.7384744564
 20
43.0833443817
  0
VERTEX
  8
0
 62
     2
 10
22.9540434571
 20
43.0092865494
  0
VERTEX
  8
0
 62
     2
 10
23.1685148830
 20
42.9310218659
  0
VERTEX
  8
0
 62
     2
 10
23.3825723732
 20
42.8513426301
  0
VERTEX
  8
0
 62
     2
 10
23.5968995558
 20
42.7730411631
  0
VERTEX
  8
0
 62
     2
 10
23.8121800663
 20
42.6989097786
  0
VERTEX
  8
0
 62
     2
 10
24.0290975401
 20
42.6317407754
  0
VERTEX
  8
0
 62
     2
 10
24.6944299208
 20
42.4850825337
  0
VERTEX
  8
0
 62
     2
 10
25.3755328672
 20
42.4146728483
  0
VERTEX
  8
0
 62
     2
 10
26.0671756694
 20
42.4084807602
  0
VERTEX
  8
0
 62
     2
 10
26.7641275989
 20
42.4544753027
  0
VERTEX
  8
0
 62
     2
 10
27.4611579383
 20
42.5406255093
  0
VERTEX
  8
0
 62
     2
 10
28.1530359628
 20
42.6549004134
  0
VERTEX
  8
0
 62
     2
 10
28.8345309550
 20
42.7852690485
  0
VERTEX
  8
0
 62
     2
 10
29.5004121864
 20
42.9197004554
  0
VERTEX
  8
0
 62
     2
 10
29.7614966685
 20
42.9730183524
  0
VERTEX
  8
0
 62
     2
 10
30.0194864812
 20
43.0306916279
  0
VERTEX
  8
0
 62
     2
 10
30.2746266777
 20
43.0983523470
  0
VERTEX
  8
0
 62
     2
 10
30.5271623077
 20
43.1816325676
  0
VERTEX
  8
0
 62
     2
 10
30.7773384245
 20
43.2861643475
  0
VERTEX
  8
0
 62
     2
 10
31.0254000815
 20
43.4175797370
  0
VERTEX
  8
0
 62
     2
 10
31.2715923282
 20
43.5815108013
  0
VERTEX
  8
0
 62
     2
 10
31.5161602179
 20
43.7835895908
  0
VERTEX
  8
0
 62
     2
 10
31.9206848124
 20
44.2090667304
  0
VERTEX
  8
0
 62
     2
 10
32.3149681965
 20
44.7063966957
  0
VERTEX
  8
0
 62
     2
 10
32.6926216947
 20
45.2251505744
  0
VERTEX
  8
0
 62
     2
 10
33.0472566502
 20
45.7148994771
  0
VERTEX
  8
0
 62
     2
 10
33.3724843951
 20
46.1252144766
  0
VERTEX
  8
0
 62
     2
 10
33.6619162614
 20
46.4056666833
  0
VERTEX
  8
0
 62
     2
 10
33.9091635848
 20
46.5058271852
  0
VERTEX
  8
0
 62
     2
 10
34.1078377010
 20
46.3752670702
  0
VERTEX
  8
0
 62
     2
 10
34.1655732410
 20
46.2669609082
  0
VERTEX
  8
0
 62
     2
 10
34.2201428952
 20
46.1321174917
  0
VERTEX
  8
0
 62
     2
 10
34.2751661258
 20
45.9789090198
  0
VERTEX
  8
0
 62
     2
 10
34.3342623988
 20
45.8155077141
  0
VERTEX
  8
0
 62
     2
 10
34.4010511765
 20
45.6500857738
  0
VERTEX
  8
0
 62
     2
 10
34.4791519175
 20
45.4908154127
  0
VERTEX
  8
0
 62
     2
 10
34.5721840875
 20
45.3458688375
  0
VERTEX
  8
0
 62
     2
 10
34.6837671491
 20
45.2234182548
  0
VERTEX
  8
0
 62
     2
 10
34.8685181977
 20
45.1035613534
  0
VERTEX
  8
0
 62
     2
 10
35.0835861767
 20
45.0363716674
  0
VERTEX
  8
0
 62
     2
 10
35.3182728047
 20
45.0177801442
  0
VERTEX
  8
0
 62
     2
 10
35.5618797818
 20
45.0437177163
  0
VERTEX
  8
0
 62
     2
 10
35.8037088232
 20
45.1101153460
  0
VERTEX
  8
0
 62
     2
 10
36.0330616364
 20
45.2129039583
  0
VERTEX
  8
0
 62
     2
 10
36.2392399328
 20
45.3480145079
  0
VERTEX
  8
0
 62
     2
 10
36.4115454162
 20
45.5113779348
  0
VERTEX
  8
0
 62
     2
 10
36.5296805816
 20
45.6759806690
  0
VERTEX
  8
0
 62
     2
 10
36.6201315316
 20
45.8546843198
  0
VERTEX
  8
0
 62
     2
 10
36.6901483776
 20
46.0426347968
  0
VERTEX
  8
0
 62
     2
 10
36.7469812276
 20
46.2349780169
  0
VERTEX
  8
0
 62
     2
 10
36.7978801893
 20
46.4268598896
  0
VERTEX
  8
0
 62
     2
 10
36.8500953781
 20
46.6134263244
  0
VERTEX
  8
0
 62
     2
 10
36.9108769017
 20
46.7898232308
  0
VERTEX
  8
0
 62
     2
 10
36.9874748642
 20
46.9511965182
  0
VERTEX
  8
0
 62
     2
 10
37.1827799658
 20
47.1984437746
  0
VERTEX
  8
0
 62
     2
 10
37.4417737888
 20
47.3915311587
  0
VERTEX
  8
0
 62
     2
 10
37.7509912009
 20
47.5427864757
  0
VERTEX
  8
0
 62
     2
 10
38.0969670618
 20
47.6645375457
  0
VERTEX
  8
0
 62
     2
 10
38.4662362429
 20
47.7691121665
  0
VERTEX
  8
0
 62
     2
 10
38.8453336077
 20
47.8688381430
  0
VERTEX
  8
0
 62
     2
 10
39.2207940201
 20
47.9760432956
  0
VERTEX
  8
0
 62
     2
 10
39.5791523436
 20
48.1030554143
  0
VERTEX
  8
0
 62
     2
 10
40.2035030740
 20
48.4403744903
  0
VERTEX
  8
0
 62
     2
 10
40.7268998267
 20
48.8836815026
  0
VERTEX
  8
0
 62
     2
 10
41.1671910377
 20
49.4140695003
  0
VERTEX
  8
0
 62
     2
 10
41.5422251502
 20
50.0126315322
  0
VERTEX
  8
0
 62
     2
 10
41.8698505888
 20
50.6604606476
  0
VERTEX
  8
0
 62
     2
 10
42.1679158004
 20
51.3386498806
  0
VERTEX
  8
0
 62
     2
 10
42.4542692172
 20
52.0282922950
  0
VERTEX
  8
0
 62
     2
 10
42.7467592748
 20
52.7104809326
  0
VERTEX
  8
0
 62
     2
 10
43.0972169245
 20
53.4434865680
  0
VERTEX
  8
0
 62
     2
 10
43.4752850140
 20
54.1465729219
  0
VERTEX
  8
0
 62
     2
 10
43.8787994849
 20
54.8225442734
  0
VERTEX
  8
0
 62
     2
 10
44.3055962900
 20
55.4742049020
  0
VERTEX
  8
0
 62
     2
 10
44.7535113858
 20
56.1043590870
  0
VERTEX
  8
0
 62
     2
 10
45.2203807140
 20
56.7158111152
  0
VERTEX
  8
0
 62
     2
 10
45.7040402310
 20
57.3113652658
  0
VERTEX
  8
0
 62
     2
 10
46.2023258897
 20
57.8938258108
  0
VERTEX
  8
0
 62
     2
 10
46.5687134469
 20
58.3060116810
  0
VERTEX
  8
0
 62
     2
 10
46.9422126243
 20
58.7131043118
  0
VERTEX
  8
0
 62
     2
 10
47.3234909417
 20
59.1153310430
  0
VERTEX
  8
0
 62
     2
 10
47.7132159153
 20
59.5129191992
  0
VERTEX
  8
0
 62
     2
 10
48.1120550724
 20
59.9060961124
  0
VERTEX
  8
0
 62
     2
 10
48.5206759254
 20
60.2950891223
  0
VERTEX
  8
0
 62
     2
 10
48.9397460016
 20
60.6801255536
  0
VERTEX
  8
0
 62
     2
 10
49.3699328171
 20
61.0614327383
  0
VERTEX
  8
0
 62
     2
 10
49.8674660342
 20
61.4846506160
  0
VERTEX
  8
0
 62
     2
 10
50.3789710382
 20
61.8954633218
  0
VERTEX
  8
0
 62
     2
 10
50.9035189020
 20
62.2858936903
  0
VERTEX
  8
0
 62
     2
 10
51.4401806908
 20
62.6479645711
  0
VERTEX
  8
0
 62
     2
 10
51.9880274812
 20
62.9736988214
  0
VERTEX
  8
0
 62
     2
 10
52.5461303460
 20
63.2551192832
  0
VERTEX
  8
0
 62
     2
 10
53.1135603504
 20
63.4842487988
  0
VERTEX
  8
0
 62
     2
 10
53.6893885674
 20
63.6531102177
  0
VERTEX
  8
0
 62
     2
 10
53.9889177213
 20
63.7141196024
  0
VERTEX
  8
0
 62
     2
 10
54.2920917029
 20
63.7572752577
  0
VERTEX
  8
0
 62
     2
 10
54.6005781794
 20
63.7827884298
  0
VERTEX
  8
0
 62
     2
 10
54.9160448032
 20
63.7908703503
  0
VERTEX
  8
0
 62
     2
 10
55.2401592413
 20
63.7817322504
  0
VERTEX
  8
0
 62
     2
 10
55.5745891536
 20
63.7555853766
  0
VERTEX
  8
0
 62
     2
 10
55.9210022034
 20
63.7126409528
  0
VERTEX
  8
0
 62
     2
 10
56.2810660469
 20
63.6531102177
  0
VERTEX
  8
0
 62
     2
 10
56.6143976653
 20
63.5853658733
  0
VERTEX
  8
0
 62
     2
 10
56.9481754767
 20
63.5016004410
  0
VERTEX
  8
0
 62
     2
 10
57.2705530839
 20
63.3989333105
  0
VERTEX
  8
0
 62
     2
 10
57.3687749671
 20
63.3580694240
  0
SEQEND
  8
0
 62
     2
  0
CIRCLE
  8
0
 62
     2
 10
61.6084008495
 20
65.5248784092
 40
1.0181054835
  0
ARC
  8
0
 62
     2
 10
61.9982965978
 20
56.9522153106
 40
44.2114047104
 50
78.1124126196
 51
193.9591339513
  0
CIRCLE
  8
0
 62
     2
 10
61.9982965978
 20
56.9522153106
 40
50.3937007874
  0
LINE
  8
0
 62
     2
 10
44.4745375419
 20
68.8364651841
 11
44.4728549028
 21
68.8462826502
  0
ENDSEC
  0
EOF
